<svg width="20" height="15" viewBox="0 0 20 15" fill="none" xmlns="http://www.w3.org/2000/svg">
<mask id="mask0_864_13685" style="mask-type:luminance" maskUnits="userSpaceOnUse" x="0" y="0" width="20" height="15">
<rect width="20" height="15" fill="white"/>
</mask>
<g mask="url(#mask0_864_13685)">
<path fill-rule="evenodd" clip-rule="evenodd" d="M0 0V15H20V0H0Z" fill="#2E42A5"/>
<mask id="mask1_864_13685" style="mask-type:luminance" maskUnits="userSpaceOnUse" x="0" y="0" width="20" height="15">
<path fill-rule="evenodd" clip-rule="evenodd" d="M0 0V15H20V0H0Z" fill="white"/>
</mask>
<g mask="url(#mask1_864_13685)">
<mask id="mask2_864_13685" style="mask-type:luminance" maskUnits="userSpaceOnUse" x="0" y="0" width="20" height="15">
<rect width="20" height="15" fill="white"/>
</mask>
<g mask="url(#mask2_864_13685)">
<path d="M-2.22656 13.9278L2.17449 15.7891L20.1003 2.02305L22.4217 -0.742876L17.7154 -1.36497L10.4039 4.5672L4.51893 8.56409L-2.22656 13.9278Z" fill="white"/>
<path d="M-1.625 15.2324L0.617135 16.3125L21.5872 -0.999338H18.4389L-1.625 15.2324Z" fill="#F50100"/>
<path d="M22.2285 13.9278L17.8275 15.7891L-0.0983143 2.02305L-2.41977 -0.742876L2.28653 -1.36497L9.59802 4.5672L15.483 8.56409L22.2285 13.9278Z" fill="white"/>
<path d="M22.0781 14.8642L19.836 15.9443L10.9067 8.53224L8.25941 7.7041L-2.64337 -0.732895H0.504852L11.4015 7.50384L14.2959 8.49687L22.0781 14.8642Z" fill="#F50100"/>
<mask id="path-9-inside-1_864_13685" fill="white">
<path d="M12.3613 5H21.2676V10H12.3613V16.25H7.63965V10H-1.23242V5H7.63965V-1.25H12.3613V5Z"/>
</mask>
<path d="M12.3613 5H21.2676V10H12.3613V16.25H7.63965V10H-1.23242V5H7.63965V-1.25H12.3613V5Z" fill="#F50100"/>
<path d="M12.3613 5H11.1113V6.25H12.3613V5ZM21.2676 5H22.5176V3.75H21.2676V5ZM21.2676 10V11.25H22.5176V10H21.2676ZM12.3613 10V8.75H11.1113V10H12.3613ZM12.3613 16.25V17.5H13.6113V16.25H12.3613ZM7.63965 16.25H6.38965V17.5H7.63965V16.25ZM7.63965 10H8.88965V8.75H7.63965V10ZM-1.23242 10H-2.48242V11.25H-1.23242V10ZM-1.23242 5V3.75H-2.48242V5H-1.23242ZM7.63965 5V6.25H8.88965V5H7.63965ZM7.63965 -1.25V-2.5H6.38965V-1.25H7.63965ZM12.3613 -1.25H13.6113V-2.5H12.3613V-1.25ZM12.3613 5V6.25H21.2676V5V3.75H12.3613V5ZM21.2676 5H20.0176V10H21.2676H22.5176V5H21.2676ZM21.2676 10V8.75H12.3613V10V11.25H21.2676V10ZM12.3613 10H11.1113V16.25H12.3613H13.6113V10H12.3613ZM12.3613 16.25V15H7.63965V16.25V17.5H12.3613V16.25ZM7.63965 16.25H8.88965V10H7.63965H6.38965V16.25H7.63965ZM7.63965 10V8.75H-1.23242V10V11.25H7.63965V10ZM-1.23242 10H0.0175781V5H-1.23242H-2.48242V10H-1.23242ZM-1.23242 5V6.25H7.63965V5V3.75H-1.23242V5ZM7.63965 5H8.88965V-1.25H7.63965H6.38965V5H7.63965ZM7.63965 -1.25V0H12.3613V-1.25V-2.5H7.63965V-1.25ZM12.3613 -1.25H11.1113V5H12.3613H13.6113V-1.25H12.3613Z" fill="white" mask="url(#path-9-inside-1_864_13685)"/>
</g>
</g>
</g>
</svg>
