<svg width="20" height="20" viewBox="0 0 20 20" fill="none" xmlns="http://www.w3.org/2000/svg">
<path d="M19.6551 16.5517H0.344843C0.154414 16.5517 0 16.3973 0 16.2069V3.79309C0 3.60266 0.154414 3.44824 0.344843 3.44824H19.6552C19.8456 3.44824 20 3.60266 20 3.79309V16.2069C20 16.3973 19.8456 16.5517 19.6551 16.5517Z" fill="#41479B"/>
<path d="M10.1401 4.94846L10.2784 5.36303L10.7153 5.36643C10.7719 5.36685 10.7954 5.43904 10.7499 5.47267L10.3983 5.73228L10.5301 6.14892C10.5472 6.20283 10.4858 6.24752 10.4397 6.21459L10.0842 5.96045L9.7287 6.21459C9.68269 6.24748 9.62124 6.20287 9.63831 6.14892L9.77011 5.73228L9.41855 5.47267C9.37304 5.43904 9.39648 5.36685 9.45308 5.36643L9.89007 5.36303L10.0284 4.94846C10.0462 4.89479 10.1222 4.89479 10.1401 4.94846Z" fill="#FFE15A"/>
<path d="M10.1401 13.8488L10.2784 14.2634L10.7153 14.2668C10.7719 14.2672 10.7954 14.3394 10.7499 14.3731L10.3983 14.6327L10.5301 15.0493C10.5472 15.1032 10.4858 15.1479 10.4397 15.115L10.0842 14.8608L9.7287 15.115C9.68269 15.1479 9.62124 15.1033 9.63831 15.0493L9.77011 14.6327L9.41855 14.3731C9.37304 14.3394 9.39648 14.2672 9.45308 14.2668L9.89007 14.2634L10.0284 13.8488C10.0462 13.7952 10.1222 13.7952 10.1401 13.8488Z" fill="#FFE15A"/>
<path d="M14.5893 9.39865L14.7276 9.81322L15.1646 9.81662C15.2212 9.81705 15.2446 9.88924 15.1991 9.92287L14.8475 10.1825L14.9793 10.5991C14.9964 10.653 14.935 10.6977 14.8889 10.6648L14.5334 10.4106L14.1779 10.6648C14.1319 10.6977 14.0705 10.6531 14.0875 10.5991L14.2193 10.1825L13.8678 9.92287C13.8223 9.88924 13.8457 9.81705 13.9023 9.81662L14.3393 9.81322L14.4776 9.39865C14.4954 9.34498 14.5714 9.34498 14.5893 9.39865Z" fill="#FFE15A"/>
<path d="M5.6889 9.39865L5.82718 9.81322L6.26417 9.81662C6.32077 9.81705 6.34421 9.88924 6.2987 9.92287L5.94714 10.1825L6.07894 10.5991C6.09601 10.653 6.0346 10.6977 5.98855 10.6648L5.63304 10.4106L5.27753 10.6648C5.23151 10.6977 5.17007 10.6531 5.18714 10.5991L5.31894 10.1825L4.96737 9.92287C4.92187 9.88924 4.9453 9.81705 5.00191 9.81662L5.4389 9.81322L5.57718 9.39865C5.59507 9.34498 5.67105 9.34498 5.6889 9.39865Z" fill="#FFE15A"/>
<path d="M6.35687 7.07443L6.49515 7.489L6.93214 7.4924C6.98874 7.49283 7.01218 7.56502 6.96667 7.59865L6.61511 7.85826L6.7469 8.2749C6.76397 8.32881 6.70257 8.37349 6.65651 8.34056L6.30101 8.08642L5.9455 8.34056C5.89948 8.37345 5.83804 8.32885 5.85511 8.2749L5.98691 7.85826L5.63534 7.59865C5.58984 7.56502 5.61327 7.49283 5.66987 7.4924L6.10687 7.489L6.24515 7.07443C6.26304 7.02076 6.33894 7.02076 6.35687 7.07443Z" fill="#FFE15A"/>
<path d="M14.0659 11.5256L14.2041 11.9402L14.6411 11.9436C14.6977 11.944 14.7212 12.0162 14.6757 12.0498L14.3241 12.3094L14.4559 12.7261C14.473 12.78 14.4116 12.8247 14.3655 12.7917L14.01 12.5376L13.6545 12.7917C13.6085 12.8246 13.547 12.78 13.5641 12.7261L13.6959 12.3094L13.3443 12.0498C13.2988 12.0162 13.3223 11.944 13.3789 11.9436L13.8159 11.9402L13.9541 11.5256C13.972 11.4719 14.048 11.4719 14.0659 11.5256Z" fill="#FFE15A"/>
<path d="M12.4369 5.44553L12.5752 5.8601L13.0122 5.86349C13.0688 5.86392 13.0923 5.93611 13.0467 5.96974L12.6952 6.22935L12.827 6.64599C12.8441 6.6999 12.7826 6.74459 12.7366 6.71166L12.3811 6.45752L12.0256 6.71166C11.9796 6.74455 11.9181 6.69994 11.9352 6.64599L12.067 6.22935L11.7154 5.96974C11.6699 5.93611 11.6934 5.86392 11.75 5.86349L12.1869 5.8601L12.3252 5.44553C12.3431 5.39186 12.419 5.39186 12.4369 5.44553Z" fill="#FFE15A"/>
<path d="M7.98577 13.1545L8.12405 13.5691L8.56104 13.5725C8.61764 13.5729 8.64108 13.6451 8.59557 13.6787L8.24401 13.9383L8.37581 14.355C8.39288 14.4089 8.33147 14.4536 8.28542 14.4206L7.92991 14.1665L7.57441 14.4206C7.52839 14.4535 7.46694 14.4089 7.48401 14.355L7.61581 13.9383L7.26425 13.6787C7.21874 13.6451 7.24218 13.5729 7.29878 13.5725L7.73577 13.5691L7.87405 13.1545C7.89194 13.1008 7.96784 13.1008 7.98577 13.1545Z" fill="#FFE15A"/>
<path d="M13.9541 7.07443L13.8159 7.489L13.3789 7.4924C13.3223 7.49283 13.2988 7.56502 13.3443 7.59865L13.6959 7.85826L13.5641 8.2749C13.547 8.32881 13.6084 8.37349 13.6545 8.34056L14.01 8.08642L14.3655 8.34056C14.4115 8.37345 14.473 8.32885 14.4559 8.2749L14.3241 7.85826L14.6757 7.59865C14.7212 7.56502 14.6977 7.49283 14.6411 7.4924L14.2041 7.489L14.0659 7.07443C14.048 7.02076 13.972 7.02076 13.9541 7.07443Z" fill="#FFE15A"/>
<path d="M6.24515 11.5256L6.10687 11.9402L5.66987 11.9436C5.61327 11.944 5.58984 12.0162 5.63534 12.0498L5.98691 12.3094L5.85511 12.7261C5.83804 12.78 5.89944 12.8247 5.9455 12.7917L6.30101 12.5376L6.65651 12.7917C6.70253 12.8246 6.76397 12.78 6.7469 12.7261L6.61511 12.3094L6.96667 12.0498C7.01218 12.0162 6.98874 11.944 6.93214 11.9436L6.49515 11.9402L6.35687 11.5256C6.33894 11.4719 6.26304 11.4719 6.24515 11.5256Z" fill="#FFE15A"/>
<path d="M7.87405 5.44553L7.73577 5.8601L7.29878 5.86349C7.24218 5.86392 7.21874 5.93611 7.26425 5.96974L7.61581 6.22935L7.48401 6.64599C7.46694 6.6999 7.52835 6.74459 7.57441 6.71166L7.92991 6.45752L8.28542 6.71166C8.33143 6.74455 8.39288 6.69994 8.37581 6.64599L8.24401 6.22935L8.59557 5.96974C8.64108 5.93611 8.61764 5.86392 8.56104 5.86349L8.12405 5.8601L7.98577 5.44553C7.96784 5.39186 7.89194 5.39186 7.87405 5.44553Z" fill="#FFE15A"/>
<path d="M12.3252 13.1545L12.1869 13.5691L11.75 13.5725C11.6934 13.5729 11.6699 13.6451 11.7154 13.6787L12.067 13.9383L11.9352 14.355C11.9181 14.4089 11.9795 14.4536 12.0256 14.4206L12.3811 14.1665L12.7366 14.4206C12.7826 14.4535 12.8441 14.4089 12.827 14.355L12.6952 13.9383L13.0467 13.6787C13.0923 13.6451 13.0688 13.5729 13.0122 13.5725L12.5752 13.5691L12.4369 13.1545C12.419 13.1008 12.3431 13.1008 12.3252 13.1545Z" fill="#FFE15A"/>
</svg>
