<svg width="22" height="22" viewBox="0 0 22 22" fill="none" xmlns="http://www.w3.org/2000/svg">
<mask id="mask0_848_5816" style="mask-type:alpha" maskUnits="userSpaceOnUse" x="0" y="0" width="22" height="22">
<circle cx="10.6667" cy="10.6667" r="10.6667" fill="#FCFCFC"/>
</mask>
<g mask="url(#mask0_848_5816)">
<rect x="3.4668" y="18.9336" width="14.6667" height="2.66667" fill="#D90026"/>
<rect x="3.4668" y="18.9336" width="14.6667" height="2.66667" fill="#D90026"/>
<rect x="0.267578" y="13.5977" width="21.0667" height="2.66667" fill="#D90026"/>
<rect x="0.267578" y="13.5977" width="21.0667" height="2.66667" fill="#D90026"/>
<rect x="0.267578" y="8" width="21.0667" height="2.66667" fill="#D90026"/>
<rect x="0.267578" y="8" width="21.0667" height="2.66667" fill="#D90026"/>
<rect x="0.267578" y="2.66797" width="21.0667" height="2.66667" fill="#D90026"/>
<rect x="0.267578" y="2.66797" width="21.0667" height="2.66667" fill="#D90026"/>
<rect width="10.9333" height="10.6667" fill="#0052B5"/>
<path d="M8.79909 8.93255L7.99909 9.33255L8.26576 8.53255L7.73242 7.99922H8.53242L8.79909 7.19922L9.19909 7.99922H9.86576L9.33242 8.53255L9.59909 9.33255L8.79909 8.93255Z" fill="#EFEFEF"/>
<path d="M5.06667 8.93255L4.26667 9.33255L4.53333 8.53255L4 7.99922H4.8L5.06667 7.19922L5.46667 7.99922H6.13333L5.6 8.53255L5.86667 9.33255L5.06667 8.93255Z" fill="#EFEFEF"/>
<path d="M1.33424 8.93255L0.534245 9.33255L0.800911 8.53255L0.267578 7.99922H1.06758L1.33424 7.19922L1.73424 7.99922H2.40091L1.86758 8.53255L2.13424 9.33255L1.33424 8.93255Z" fill="#EFEFEF"/>
<path d="M8.79909 5.99896L7.99909 6.39896L8.26576 5.59896L7.73242 5.06563H8.53242L8.79909 4.26562L9.19909 5.06563H9.86576L9.33242 5.59896L9.59909 6.39896L8.79909 5.99896Z" fill="#EFEFEF"/>
<path d="M8.79909 3.06536L7.99909 3.46536L8.26576 2.66536L7.73242 2.13203H8.53242L8.79909 1.33203L9.19909 2.13203H9.86576L9.33242 2.66536L9.59909 3.46536L8.79909 3.06536Z" fill="#EFEFEF"/>
<path d="M8.79909 0.135677L7.99909 0.535677L8.26576 -0.264323L7.73242 -0.797656H8.53242L8.79909 -1.59766L9.19909 -0.797656H9.86576L9.33242 -0.264323L9.59909 0.535677L8.79909 0.135677Z" fill="#EFEFEF"/>
<path d="M5.06667 3.06536L4.26667 3.46536L4.53333 2.66536L4 2.13203H4.8L5.06667 1.33203L5.46667 2.13203H6.13333L5.6 2.66536L5.86667 3.46536L5.06667 3.06536Z" fill="#EFEFEF"/>
<path d="M5.06667 5.99896L4.26667 6.39896L4.53333 5.59896L4 5.06563H4.8L5.06667 4.26562L5.46667 5.06563H6.13333L5.6 5.59896L5.86667 6.39896L5.06667 5.99896Z" fill="#EFEFEF"/>
<path d="M1.33424 5.99896L0.534245 6.39896L0.800911 5.59896L0.267578 5.06563H1.06758L1.33424 4.26562L1.73424 5.06563H2.40091L1.86758 5.59896L2.13424 6.39896L1.33424 5.99896Z" fill="#EFEFEF"/>
</g>
</svg>
