<svg width="25" height="18" viewBox="0 0 25 18" fill="none" xmlns="http://www.w3.org/2000/svg">
<g clip-path="url(#clip0_848_5839)">
<mask id="mask0_848_5839" style="mask-type:alpha" maskUnits="userSpaceOnUse" x="0" y="0" width="25" height="18">
<path d="M22.619 0H2.38095C1.06599 0 0 1.07452 0 2.4V15.6C0 16.9255 1.06599 18 2.38095 18H22.619C23.934 18 25 16.9255 25 15.6V2.4C25 1.07452 23.934 0 22.619 0Z" fill="white"/>
</mask>
<g mask="url(#mask0_848_5839)">
<path d="M22.619 0H2.38095C1.06599 0 0 1.07452 0 2.4V15.6C0 16.9255 1.06599 18 2.38095 18H22.619C23.934 18 25 16.9255 25 15.6V2.4C25 1.07452 23.934 0 22.619 0Z" fill="white"/>
<path fill-rule="evenodd" clip-rule="evenodd" d="M0 0H10.7143V8.4H0V0Z" fill="#444379"/>
<path fill-rule="evenodd" clip-rule="evenodd" d="M1.19043 1.2002V2.4002H2.38091V1.2002H1.19043ZM3.57138 1.2002V2.4002H4.76186V1.2002H3.57138ZM5.95233 1.2002V2.4002H7.14281V1.2002H5.95233ZM8.33329 1.2002V2.4002H9.52376V1.2002H8.33329ZM7.14281 2.4002V3.6002H8.33329V2.4002H7.14281ZM4.76186 2.4002V3.6002H5.95233V2.4002H4.76186ZM2.38091 2.4002V3.6002H3.57138V2.4002H2.38091ZM1.19043 3.6002V4.8002H2.38091V3.6002H1.19043ZM3.57138 3.6002V4.8002H4.76186V3.6002H3.57138ZM5.95233 3.6002V4.8002H7.14281V3.6002H5.95233ZM8.33329 3.6002V4.8002H9.52376V3.6002H8.33329ZM1.19043 6.0002V7.2002H2.38091V6.0002H1.19043ZM3.57138 6.0002V7.2002H4.76186V6.0002H3.57138ZM5.95233 6.0002V7.2002H7.14281V6.0002H5.95233ZM8.33329 6.0002V7.2002H9.52376V6.0002H8.33329ZM7.14281 4.8002V6.0002H8.33329V4.8002H7.14281ZM4.76186 4.8002V6.0002H5.95233V4.8002H4.76186ZM2.38091 4.8002V6.0002H3.57138V4.8002H2.38091Z" fill="#A7B6E7"/>
<path fill-rule="evenodd" clip-rule="evenodd" d="M10.7143 0V1.2H25V0H10.7143ZM10.7143 2.4V3.6H25V2.4H10.7143ZM10.7143 4.8V6H25V4.8H10.7143ZM10.7143 7.2V8.4H25V7.2H10.7143ZM0 9.6V10.8H25V9.6H0ZM0 12V13.2H25V12H0ZM0 14.4V15.6H25V14.4H0ZM0 16.8V18H25V16.8H0Z" fill="#ED4C49"/>
<path d="M22.6195 0.599609H2.38142C1.39519 0.599609 0.595703 1.4055 0.595703 2.39961V15.5996C0.595703 16.5937 1.39519 17.3996 2.38142 17.3996H22.6195C23.6057 17.3996 24.4052 16.5937 24.4052 15.5996V2.39961C24.4052 1.4055 23.6057 0.599609 22.6195 0.599609Z" stroke="black" stroke-opacity="0.1"/>
</g>
</g>
<defs>
<clipPath id="clip0_848_5839">
<rect width="25" height="18" fill="white"/>
</clipPath>
</defs>
</svg>
