<svg width="20" height="15" viewBox="0 0 20 15" fill="none" xmlns="http://www.w3.org/2000/svg">
<mask id="mask0_864_13680" style="mask-type:luminance" maskUnits="userSpaceOnUse" x="0" y="0" width="20" height="15">
<rect width="20" height="15" fill="white"/>
</mask>
<g mask="url(#mask0_864_13680)">
<path fill-rule="evenodd" clip-rule="evenodd" d="M0 0H20V15H0V0Z" fill="#E31D1C"/>
<path d="M20 13.75V15H0V13.75H20ZM20 12.5H0V11.25H20V12.5ZM20 10H0V8.75H20V10ZM20 7.5H0V6.25H20V7.5ZM20 5H0V3.75H20V5ZM20 2.5H0V1.25H20V2.5Z" fill="#F7FCFF"/>
<rect width="11.25" height="8.75" fill="#2E42A5"/>
<path d="M9.76367 1.37598H10.4189L9.9043 1.89648L10.1035 2.71777L9.46289 2.25586L8.93164 2.62598H9.16895L8.6543 3.14648L8.83105 3.87598H9.2041L9.46191 3.20605L9.76367 3.87598H10.4189L9.9043 4.39648L10.1035 5.21777L9.46289 4.75586L8.93164 5.12598H9.16895L8.6543 5.64648L8.83105 6.37598H9.2041L9.46191 5.70605L9.76367 6.37598H10.4189L9.9043 6.89648L10.1035 7.71777L9.46289 7.25586L8.7998 7.71777L9.02344 6.89648L8.43555 6.37598H8.72656L8.21289 6.00586L7.68164 6.37598H7.91895L7.4043 6.89648L7.60352 7.71777L6.96289 7.25586L6.2998 7.71777L6.52344 6.89648L5.93555 6.37598H6.22656L5.71289 6.00586L5.18164 6.37598H5.41895L4.9043 6.89648L5.10352 7.71777L4.46289 7.25586L3.7998 7.71777L4.02344 6.89648L3.43555 6.37598H3.72656L3.21289 6.00586L2.68164 6.37598H2.91895L2.4043 6.89648L2.60352 7.71777L1.96289 7.25586L1.2998 7.71777L1.52344 6.89648L0.935547 6.37598H1.7041L1.96191 5.70605L2.26367 6.37598H2.5752L2.77344 5.64648L2.18555 5.12598H2.47656L1.96289 4.75586L1.2998 5.21777L1.52344 4.39648L0.935547 3.87598H1.7041L1.96191 3.20605L2.26367 3.87598H2.5752L2.77344 3.14648L2.18555 2.62598H2.47656L1.96289 2.25586L1.2998 2.71777L1.52344 1.89648L0.935547 1.37598H1.7041L1.96191 0.706055L2.26367 1.37598H2.91895L2.4043 1.89648L2.58105 2.62598H2.9541L3.21191 1.95605L3.51367 2.62598H3.8252L4.02344 1.89648L3.43555 1.37598H4.2041L4.46191 0.706055L4.76367 1.37598H5.41895L4.9043 1.89648L5.08105 2.62598H5.4541L5.71191 1.95605L6.01367 2.62598H6.3252L6.52344 1.89648L5.93555 1.37598H6.7041L6.96191 0.706055L7.26367 1.37598H7.91895L7.4043 1.89648L7.58105 2.62598H7.9541L8.21191 1.95605L8.51367 2.62598H8.8252L9.02344 1.89648L8.43555 1.37598H9.2041L9.46191 0.706055L9.76367 1.37598ZM6.43164 5.12598H6.66895L6.1543 5.64648L6.33105 6.37598H6.7041L6.96191 5.70605L7.26367 6.37598H7.5752L7.77344 5.64648L7.18555 5.12598H7.47656L6.96289 4.75586L6.43164 5.12598ZM3.93164 5.12598H4.16895L3.6543 5.64648L3.83105 6.37598H4.2041L4.46191 5.70605L4.76367 6.37598H5.0752L5.27344 5.64648L4.68555 5.12598H4.97656L4.46289 4.75586L3.93164 5.12598ZM7.68164 3.87598H7.91895L7.4043 4.39648L7.58105 5.12598H7.9541L8.21191 4.45605L8.51367 5.12598H8.8252L9.02344 4.39648L8.43555 3.87598H8.72656L8.21289 3.50586L7.68164 3.87598ZM2.68164 3.87598H2.91895L2.4043 4.39648L2.58105 5.12598H2.9541L3.21191 4.45605L3.51367 5.12598H3.8252L4.02344 4.39648L3.43555 3.87598H3.72656L3.21289 3.50586L2.68164 3.87598ZM5.18164 3.87598H5.41895L4.9043 4.39648L5.08105 5.12598H5.4541L5.71191 4.45605L6.01367 5.12598H6.3252L6.52344 4.39648L5.93555 3.87598H6.22656L5.71289 3.50586L5.18164 3.87598ZM3.93164 2.62598H4.16895L3.6543 3.14648L3.83105 3.87598H4.2041L4.46191 3.20605L4.76367 3.87598H5.0752L5.27344 3.14648L4.68555 2.62598H4.97656L4.46289 2.25586L3.93164 2.62598ZM6.43164 2.62598H6.66895L6.1543 3.14648L6.33105 3.87598H6.7041L6.96191 3.20605L7.26367 3.87598H7.5752L7.77344 3.14648L7.18555 2.62598H7.47656L6.96289 2.25586L6.43164 2.62598Z" fill="#F7FCFF"/>
</g>
</svg>
