<svg width="16" height="16" viewBox="0 0 16 16" fill="none" xmlns="http://www.w3.org/2000/svg">
<path d="M2.75048 10.5777L8 7.6665L13.2495 10.5777C13.7131 10.8384 14 11.329 14 11.8609C14 12.674 13.3409 13.3332 12.5277 13.3332H3.47227C2.65916 13.3332 2 12.674 2 11.8609C2 11.329 2.28689 10.8384 2.75048 10.5777Z" stroke="#FF4747" stroke-width="1.5" stroke-linecap="round" stroke-linejoin="round"/>
<path d="M6.66797 4.60334C6.66797 3.90202 7.2649 3.3335 8.0013 3.3335C8.7377 3.3335 9.33464 3.90202 9.33464 4.60334C9.33464 5.08318 9.05517 5.50087 8.64284 5.71682C8.31664 5.88762 8.0013 6.00016 8.0013 6.00016V7.66683" stroke="#FF4747" stroke-width="1.5" stroke-linecap="round" stroke-linejoin="round"/>
</svg>
