<svg width="14" height="14" viewBox="0 0 14 14" fill="none" xmlns="http://www.w3.org/2000/svg">
<path d="M4.08366 4.08333L4.60541 3.03983C4.91919 2.41226 5.07608 2.09848 5.35801 1.92424C5.63994 1.75 5.99075 1.75 6.69238 1.75H7.30827C8.0099 1.75 8.36072 1.75 8.64264 1.92424C8.92457 2.09848 9.08148 2.41226 9.39526 3.03984L9.91699 4.08333C11.0074 4.08333 11.5525 4.08333 11.9587 4.31779C12.2247 4.47138 12.4456 4.6923 12.5992 4.95833C12.8337 5.36442 12.8337 5.90963 12.8337 7V8.75C12.8337 10.3999 12.8337 11.2248 12.3211 11.7374C11.8085 12.25 10.9836 12.25 9.33366 12.25H4.66699C3.01707 12.25 2.19212 12.25 1.67956 11.7374C1.16699 11.2248 1.16699 10.3999 1.16699 8.75V7C1.16699 5.90963 1.16699 5.36442 1.40145 4.95833C1.55504 4.6923 1.77596 4.47138 2.04199 4.31779C2.44808 4.08333 2.99327 4.08333 4.08366 4.08333ZM4.08366 4.08333H7.00033" stroke="#334155" stroke-width="1.25" stroke-linecap="round" stroke-linejoin="round"/>
<path d="M9.04134 8.16667C9.04134 9.29425 8.12726 10.2083 6.99967 10.2083C5.87209 10.2083 4.95801 9.29425 4.95801 8.16667C4.95801 7.03908 5.87209 6.125 6.99967 6.125C8.12726 6.125 9.04134 7.03908 9.04134 8.16667Z" stroke="#334155" stroke-width="1.25" stroke-linecap="round" stroke-linejoin="round"/>
<path d="M11.083 5.83301V5.83949" stroke="#334155" stroke-width="2" stroke-linecap="round" stroke-linejoin="round"/>
</svg>
