<svg width="26" height="26" viewBox="0 0 26 26" fill="none" xmlns="http://www.w3.org/2000/svg">
<path d="M8.66602 17.3333L18.1128 16.5461C21.0687 16.2998 21.7322 15.6542 22.0598 12.7063L22.7493 6.5" stroke="white" stroke-width="1.5" stroke-linecap="round"/>
<path d="M6.5 6.5H23.8333" stroke="white" stroke-width="1.5" stroke-linecap="round"/>
<path d="M6.50065 23.8333C7.69727 23.8333 8.66732 22.8633 8.66732 21.6667C8.66732 20.47 7.69727 19.5 6.50065 19.5C5.30403 19.5 4.33398 20.47 4.33398 21.6667C4.33398 22.8633 5.30403 23.8333 6.50065 23.8333Z" stroke="white" stroke-width="1.5"/>
<path d="M18.4167 23.8333C19.6133 23.8333 20.5833 22.8633 20.5833 21.6667C20.5833 20.47 19.6133 19.5 18.4167 19.5C17.22 19.5 16.25 20.47 16.25 21.6667C16.25 22.8633 17.22 23.8333 18.4167 23.8333Z" stroke="white" stroke-width="1.5"/>
<path d="M8.66602 21.667H16.2493" stroke="white" stroke-width="1.5" stroke-linecap="round"/>
<path d="M2.16602 2.16699H3.21252C4.23592 2.16699 5.128 2.84363 5.37621 3.80817L8.59941 16.3332C8.76229 16.9662 8.6229 17.6367 8.21994 18.1587L7.18416 19.5003" stroke="white" stroke-width="1.5" stroke-linecap="round"/>
</svg>
