<svg width="18" height="18" viewBox="0 0 18 18" fill="none" xmlns="http://www.w3.org/2000/svg">
<path d="M6 12L12.5401 11.455C14.5865 11.2845 15.0458 10.8375 15.2726 8.79667L15.75 4.5" stroke="#111827" stroke-width="1.25" stroke-linecap="round"/>
<path d="M4.5 4.5H4.875M16.5 4.5H14.625" stroke="#111827" stroke-width="1.5" stroke-linecap="round"/>
<path d="M7.125 4.5H12.375M9.75 7.125V1.875" stroke="#111827" stroke-width="1.25" stroke-linecap="round"/>
<path d="M4.5 16.5C5.32843 16.5 6 15.8284 6 15C6 14.1716 5.32843 13.5 4.5 13.5C3.67157 13.5 3 14.1716 3 15C3 15.8284 3.67157 16.5 4.5 16.5Z" stroke="#111827" stroke-width="1.25"/>
<path d="M12.75 16.5C13.5784 16.5 14.25 15.8284 14.25 15C14.25 14.1716 13.5784 13.5 12.75 13.5C11.9216 13.5 11.25 14.1716 11.25 15C11.25 15.8284 11.9216 16.5 12.75 16.5Z" stroke="#111827" stroke-width="1.25"/>
<path d="M6 15H11.25" stroke="#111827" stroke-width="1.25" stroke-linecap="round"/>
<path d="M1.5 1.5H2.2245C2.93301 1.5 3.55061 1.96844 3.72245 2.6362L5.95389 11.3074C6.06665 11.7456 5.97015 12.2098 5.69118 12.5712L4.9741 13.5" stroke="#111827" stroke-width="1.25" stroke-linecap="round"/>
</svg>
