<svg width="14" height="14" viewBox="0 0 14 14" fill="none" xmlns="http://www.w3.org/2000/svg">
<path d="M12.3532 4.79907V3.07824C12.3532 2.69147 12.1996 2.32053 11.9261 2.04704C11.6526 1.77355 11.2817 1.61991 10.8949 1.61991H9.21053L8.0147 0.424073C7.74146 0.152457 7.37184 0 6.98657 0C6.6013 0 6.23168 0.152457 5.95845 0.424073L4.79907 1.61991H3.07824C2.69147 1.61991 2.32053 1.77355 2.04704 2.04704C1.77355 2.32053 1.61991 2.69147 1.61991 3.07824V4.79907L0.424073 5.95845C0.152457 6.23168 0 6.6013 0 6.98657C0 7.37184 0.152457 7.74146 0.424073 8.0147L1.61991 9.21053V10.8949C1.61991 11.2817 1.77355 11.6526 2.04704 11.9261C2.32053 12.1996 2.69147 12.3532 3.07824 12.3532H4.79907L5.95845 13.5491C6.23168 13.8207 6.6013 13.9731 6.98657 13.9731C7.37184 13.9731 7.74146 13.8207 8.0147 13.5491L9.21053 12.3532H10.8949C11.2817 12.3532 11.6526 12.1996 11.9261 11.9261C12.1996 11.6526 12.3532 11.2817 12.3532 10.8949V9.21053L13.5491 8.0147C13.8207 7.74146 13.9731 7.37184 13.9731 6.98657C13.9731 6.6013 13.8207 6.23168 13.5491 5.95845L12.3532 4.79907Z" fill="#2196F3"/>
<path d="M6.441 8.80937C6.34504 8.80993 6.24991 8.79153 6.16107 8.75525C6.07223 8.71896 5.99143 8.66549 5.9233 8.59791L4.80038 7.50416C4.66307 7.36686 4.58594 7.18063 4.58594 6.98646C4.58594 6.79228 4.66307 6.60605 4.80038 6.46875C4.93768 6.33144 5.12391 6.25431 5.31809 6.25431C5.51227 6.25431 5.69849 6.33144 5.8358 6.46875L6.41184 7.05208L8.08163 5.375C8.21893 5.22996 8.40823 5.1454 8.60788 5.13993C8.80753 5.13446 9.00117 5.20853 9.14621 5.34583C9.29125 5.48314 9.37581 5.67243 9.38128 5.87208C9.38675 6.07173 9.31268 6.26537 9.17538 6.41041L6.98788 8.59791C6.91632 8.66909 6.83077 8.72463 6.73663 8.76103C6.6425 8.79743 6.54183 8.81389 6.441 8.80937Z" fill="white"/>
</svg>
