<svg width="20" height="20" viewBox="0 0 20 20" fill="none" xmlns="http://www.w3.org/2000/svg">
<path d="M12.5 12.5L13.75 13.75" stroke="#758192" stroke-width="1.25" stroke-linecap="round" stroke-linejoin="round"/>
<path d="M14.1111 15.8543C13.6296 15.3729 13.6296 14.5924 14.1111 14.1111C14.5924 13.6296 15.3729 13.6296 15.8543 14.1111L17.5556 15.8123C18.037 16.2937 18.037 17.0742 17.5556 17.5556C17.0742 18.037 16.2937 18.037 15.8123 17.5556L14.1111 15.8543Z" stroke="#758192" stroke-width="1.25" stroke-linecap="round" stroke-linejoin="round"/>
<path d="M13.7497 7.91683C13.7497 4.69517 11.138 2.0835 7.91634 2.0835C4.69468 2.0835 2.08301 4.69517 2.08301 7.91683C2.08301 11.1385 4.69468 13.7502 7.91634 13.7502C11.138 13.7502 13.7497 11.1385 13.7497 7.91683Z" stroke="#758192" stroke-width="1.25" stroke-linecap="round" stroke-linejoin="round"/>
</svg>
