<svg xmlns="http://www.w3.org/2000/svg">

  <symbol id="bell" viewBox="0 0 24 24">
    <path fill="none" d="M15.5 18C15.5 19.933 13.933 21.5 12 21.5C10.067 21.5 8.5 19.933 8.5 18" stroke="currentColor" stroke-width="1.5" stroke-linecap="round" stroke-linejoin="round"/>
    <path fill="none" d="M19.2311 18H4.76887C3.79195 18 3 17.208 3 16.2311C3 15.762 3.18636 15.3121 3.51809 14.9803L4.12132 14.3771C4.68393 13.8145 5 13.0514 5 12.2558V9.5C5 5.63401 8.13401 2.5 12 2.5C15.866 2.5 19 5.634 19 9.5V12.2558C19 13.0514 19.3161 13.8145 19.8787 14.3771L20.4819 14.9803C20.8136 15.3121 21 15.762 21 16.2311C21 17.208 20.208 18 19.2311 18Z" stroke="currentColor" stroke-width="1.5" stroke-linecap="round" stroke-linejoin="round"/>
  </symbol>

  <symbol id="arrow-down" viewBox="0 0 10 5">
    <path d="M8.625 0.625L4.625 3.825L0.625 0.624999" stroke="currentColor" fill="none" stroke-width="1.25" stroke-linecap="round" stroke-linejoin="round" />
  </symbol>

  <symbol id="search" viewBox="0 0 20 20">
    <path fill="none" d="M12.5 12.5L13.75 13.75" stroke="currentColor" stroke-width="1.25" stroke-linecap="round" stroke-linejoin="round"/>
    <path fill="none" d="M14.1111 15.8543C13.6296 15.3729 13.6296 14.5924 14.1111 14.1111C14.5924 13.6296 15.3729 13.6296 15.8543 14.1111L17.5556 15.8123C18.037 16.2937 18.037 17.0742 17.5556 17.5556C17.0742 18.037 16.2937 18.037 15.8123 17.5556L14.1111 15.8543Z" stroke="currentColor" stroke-width="1.25" stroke-linecap="round" stroke-linejoin="round"/>
    <path fill="none" d="M13.7497 7.91683C13.7497 4.69517 11.138 2.0835 7.91634 2.0835C4.69468 2.0835 2.08301 4.69517 2.08301 7.91683C2.08301 11.1385 4.69468 13.7502 7.91634 13.7502C11.138 13.7502 13.7497 11.1385 13.7497 7.91683Z" stroke="currentColor" stroke-width="1.25" stroke-linecap="round" stroke-linejoin="round"/>
  </symbol>

  <symbol id="search2" viewBox="0 0 18 18">
    <path fill="none" d="M14.625 12.5307L16.0663 13.9719C16.6446 14.5503 16.6446 15.4879 16.0663 16.0663C15.4879 16.6446 14.5503 16.6446 13.9719 16.0663L12.5307 14.625M1.5 7.875C1.5 4.35418 4.35418 1.5 7.875 1.5C11.3958 1.5 14.25 4.35418 14.25 7.875C14.25 11.3958 11.3958 14.25 7.875 14.25C4.35418 14.25 1.5 11.3958 1.5 7.875Z" stroke="currentColor" stroke-width="1.25" stroke-linecap="round"/>
  </symbol>

  <symbol id="back" viewBox="0 0 24 24">
    <path fill="none" d="M5 12H19" stroke="currentColor" stroke-width="2" stroke-linecap="round" stroke-linejoin="round"/>
    <path fill="none" d="M5 12L9 16" stroke="currentColor" stroke-width="2" stroke-linecap="round" stroke-linejoin="round"/>
    <path fill="none" d="M5 12L9 8" stroke="currentColor" stroke-width="2" stroke-linecap="round" stroke-linejoin="round"/>
  </symbol>

  <symbol id="filterSearch" viewBox="0 0 24 24">
    <path fill="none" d="M2.5 9.5H6.5" stroke="currentColor" stroke-width="1.5" stroke-linecap="round" stroke-linejoin="round"/>
    <path fill="none" d="M2.5 14.5H6.5" stroke="currentColor" stroke-width="1.5" stroke-linecap="round" stroke-linejoin="round"/>
    <path fill="none" d="M2.5 19.5H18.5" stroke="currentColor" stroke-width="1.5" stroke-linecap="round" stroke-linejoin="round"/>
    <path fill="none" d="M18.5355 13.0355L21.5 16M20 9.5C20 6.73858 17.7614 4.5 15 4.5C12.2386 4.5 10 6.73858 10 9.5C10 12.2614 12.2386 14.5 15 14.5C17.7614 14.5 20 12.2614 20 9.5Z" stroke="currentColor" stroke-width="1.5" stroke-linecap="round" stroke-linejoin="round"/>
  </symbol>

  <symbol id="hearth" viewBox="0 0 24 24">
    <path fill="none" d="M10.4107 19.9677C7.58942 17.858 2 13.0348 2 8.69444C2 5.82563 4.10526 3.5 7 3.5C8.5 3.5 10 4 12 6C14 4 15.5 3.5 17 3.5C19.8947 3.5 22 5.82563 22 8.69444C22 13.0348 16.4106 17.858 13.5893 19.9677C12.6399 20.6776 11.3601 20.6776 10.4107 19.9677Z" stroke="currentColor" stroke-width="1.5" stroke-linecap="round" stroke-linejoin="round"/>
  </symbol>

  <symbol id="hearthFill" viewBox="0 0 24 24">
    <path fill="currentColor" d="M11.6143 21.1436C11.8516 21.2858 12.1484 21.2858 12.3857 21.1436C12.6661 20.9637 13.5137 20.4196 13.9912 20.0869C14.9449 19.4224 16.2205 18.4732 17.499 17.335C18.7743 16.1996 20.0728 14.8587 21.0576 13.4102C22.0377 11.9685 22.75 10.3565 22.75 8.69434C22.7499 5.45202 20.3484 2.75 17 2.75C15.4082 2.75 13.8662 3.26268 12 4.96484C10.1338 3.26268 8.59184 2.75 7 2.75C3.65156 2.75 1.25005 5.45202 1.25 8.69434C1.25 10.3565 1.96225 11.9685 2.94238 13.4102C3.92725 14.8587 5.22567 16.1996 6.50098 17.335C7.77947 18.4732 9.05506 19.4224 10.0088 20.0869C10.4863 20.4196 11.3339 20.9637 11.6143 21.1436Z"/>
  </symbol>

  <symbol id="star" viewBox="0 0 18 18">
    <path d="M1.67174 8.31557L4.77603 11.1266L3.84612 15.3117C3.79692 15.5305 3.81096 15.7595 3.88649 15.97C3.96203 16.1806 4.0957 16.3634 4.27081 16.4955C4.44592 16.6277 4.65468 16.7033 4.871 16.713C5.08733 16.7228 5.30161 16.6661 5.48706 16.5501L9.00503 14.3362L12.5154 16.5501C12.7009 16.6661 12.9152 16.7228 13.1315 16.713C13.3478 16.7033 13.5566 16.6277 13.7317 16.4955C13.9068 16.3634 14.0405 16.1806 14.116 15.97C14.1915 15.7595 14.2056 15.5305 14.1564 15.3117L13.2278 11.1309L16.3328 8.31557C16.497 8.1686 16.6158 7.9746 16.6742 7.75789C16.7326 7.54118 16.728 7.31141 16.661 7.09739C16.5941 6.88336 16.4677 6.69462 16.2977 6.55483C16.1278 6.41503 15.9219 6.3304 15.7058 6.31156L11.613 5.94376L10.0155 1.99002C9.93205 1.78256 9.79133 1.60536 9.61103 1.48071C9.43074 1.35606 9.21893 1.28955 9.00228 1.28955C8.78563 1.28955 8.57382 1.35606 8.39352 1.48071C8.21323 1.60536 8.07251 1.78256 7.98908 1.99002L6.38669 5.94376L2.29535 6.31156C2.07925 6.3304 1.87331 6.41503 1.70337 6.55483C1.53344 6.69462 1.40706 6.88336 1.34009 7.09739C1.27312 7.31141 1.26855 7.54118 1.32693 7.75789C1.38532 7.9746 1.50407 8.1686 1.6683 8.31557H1.67174Z" fill="currentColor"/>    
  </symbol>

  <symbol id="badgeCheck" viewBox="0 0 14 14">
    <path d="M12.3532 4.79907V3.07824C12.3532 2.69147 12.1996 2.32053 11.9261 2.04704C11.6526 1.77355 11.2817 1.61991 10.8949 1.61991H9.21053L8.0147 0.424073C7.74146 0.152457 7.37184 0 6.98657 0C6.6013 0 6.23168 0.152457 5.95845 0.424073L4.79907 1.61991H3.07824C2.69147 1.61991 2.32053 1.77355 2.04704 2.04704C1.77355 2.32053 1.61991 2.69147 1.61991 3.07824V4.79907L0.424073 5.95845C0.152457 6.23168 0 6.6013 0 6.98657C0 7.37184 0.152457 7.74146 0.424073 8.0147L1.61991 9.21053V10.8949C1.61991 11.2817 1.77355 11.6526 2.04704 11.9261C2.32053 12.1996 2.69147 12.3532 3.07824 12.3532H4.79907L5.95845 13.5491C6.23168 13.8207 6.6013 13.9731 6.98657 13.9731C7.37184 13.9731 7.74146 13.8207 8.0147 13.5491L9.21053 12.3532H10.8949C11.2817 12.3532 11.6526 12.1996 11.9261 11.9261C12.1996 11.6526 12.3532 11.2817 12.3532 10.8949V9.21053L13.5491 8.0147C13.8207 7.74146 13.9731 7.37184 13.9731 6.98657C13.9731 6.6013 13.8207 6.23168 13.5491 5.95845L12.3532 4.79907Z" fill="currentColor"/>
    <path d="M6.441 8.80937C6.34504 8.80993 6.24991 8.79153 6.16107 8.75525C6.07223 8.71896 5.99143 8.66549 5.9233 8.59791L4.80038 7.50416C4.66307 7.36686 4.58594 7.18063 4.58594 6.98646C4.58594 6.79228 4.66307 6.60605 4.80038 6.46875C4.93768 6.33144 5.12391 6.25431 5.31809 6.25431C5.51227 6.25431 5.69849 6.33144 5.8358 6.46875L6.41184 7.05208L8.08163 5.375C8.21893 5.22996 8.40823 5.1454 8.60788 5.13993C8.80753 5.13446 9.00117 5.20853 9.14621 5.34583C9.29125 5.48314 9.37581 5.67243 9.38128 5.87208C9.38675 6.07173 9.31268 6.26537 9.17538 6.41041L6.98788 8.59791C6.91632 8.66909 6.83077 8.72463 6.73663 8.76103C6.6425 8.79743 6.54183 8.81389 6.441 8.80937Z" fill="white"/>    
  </symbol>

  <symbol id="hanger" viewBox="0 0 16 16">
    <path fill="none" d="M2.75048 10.5777L8 7.6665L13.2495 10.5777C13.7131 10.8384 14 11.329 14 11.8609C14 12.674 13.3409 13.3332 12.5277 13.3332H3.47227C2.65916 13.3332 2 12.674 2 11.8609C2 11.329 2.28689 10.8384 2.75048 10.5777Z" stroke="currentColor" stroke-width="1.5" stroke-linecap="round" stroke-linejoin="round"/>
    <path fill="none" d="M6.66797 4.60334C6.66797 3.90202 7.2649 3.3335 8.0013 3.3335C8.7377 3.3335 9.33464 3.90202 9.33464 4.60334C9.33464 5.08318 9.05517 5.50087 8.64284 5.71682C8.31664 5.88762 8.0013 6.00016 8.0013 6.00016V7.66683" stroke="currentColor" stroke-width="1.5" stroke-linecap="round" stroke-linejoin="round"/>
  </symbol>

  <symbol id="home" viewBox="0 0 24 24">
    <path fill="none" d="M22 10.5L12.8825 2.82207C12.6355 2.61407 12.3229 2.5 12 2.5C11.6771 2.5 11.3645 2.61407 11.1175 2.82207L2 10.5" stroke="#1E293B" stroke-width="1.5" stroke-linecap="round" stroke-linejoin="round"/>
    <path fill="none" d="M20.5 5V15.5C20.5 18.3284 20.5 19.7426 19.6213 20.6213C18.7426 21.5 17.3284 21.5 14.5 21.5H9.5C6.67157 21.5 5.25736 21.5 4.37868 20.6213C3.5 19.7426 3.5 18.3284 3.5 15.5V9.5" stroke="currentColor" stroke-width="1.5" stroke-linecap="round" stroke-linejoin="round"/>
    <path fill="none" d="M10.5 11.5H9.5V12.5H10.5V11.5Z" stroke="currentColor" stroke-width="1.5" stroke-linecap="round" stroke-linejoin="round"/>
    <path fill="none" d="M14.5 11.5H13.5V12.5H14.5V11.5Z" stroke="currentColor" stroke-width="1.5" stroke-linecap="round" stroke-linejoin="round"/>
    <path fill="none" d="M10.5 15.5H9.5V16.5H10.5V15.5Z" stroke="currentColor" stroke-width="1.5" stroke-linecap="round" stroke-linejoin="round"/>
    <path fill="none" d="M14.5 15.5H13.5V16.5H14.5V15.5Z" stroke="currentColor" stroke-width="1.5" stroke-linecap="round" stroke-linejoin="round"/>
  </symbol>

  <symbol id="homeFill" viewBox="0 0 24 24">
    <path  fill="currentColor" d="M12 1.75C12.546 1.75 13.0746 1.94268 13.4922 2.29395L19.3301 7.2041V5.16699C19.3301 4.62795 19.767 4.19058 20.3067 4.19043C20.8464 4.19043 21.2842 4.62786 21.2842 5.16699V8.84863L22.4024 9.78906L22.4756 9.85742C22.8201 10.2127 22.8463 10.7785 22.5205 11.165C22.2104 11.5326 21.6867 11.613 21.2842 11.3799V19.3213C21.2842 20.9386 19.9717 22.2499 18.3526 22.25H5.64748C4.02836 22.2499 2.71584 20.9386 2.71584 19.3213V11.3799C2.31337 11.613 1.78968 11.5326 1.47951 11.165C1.13205 10.7528 1.18518 10.1364 1.59768 9.78906L10.5088 2.29395L10.6699 2.16992C11.0583 1.89775 11.5223 1.75 12 1.75ZM9.50002 14.75C9.11185 14.75 8.79255 15.0449 8.75393 15.4229L8.75002 15.5V16.5C8.75002 16.6989 8.82909 16.8896 8.96975 17.0303C9.1104 17.1709 9.30111 17.25 9.50002 17.25H10.5C10.8882 17.25 11.2075 16.9551 11.2461 16.5771L11.25 16.5V15.5C11.25 15.1118 10.9551 14.7925 10.5772 14.7539L10.5 14.75H9.50002ZM13.5 14.75C13.1119 14.75 12.7925 15.0449 12.7539 15.4229L12.75 15.5V16.5C12.75 16.6989 12.8291 16.8896 12.9697 17.0303C13.1104 17.1709 13.3011 17.25 13.5 17.25H14.5C14.8882 17.25 15.2075 16.9551 15.2461 16.5771L15.25 16.5V15.5C15.25 15.1118 14.9551 14.7925 14.5772 14.7539L14.5 14.75H13.5ZM9.50002 10.75C9.11185 10.75 8.79255 11.0449 8.75393 11.4229L8.75002 11.5V12.5C8.75002 12.9142 9.08581 13.25 9.50002 13.25H10.5C10.8882 13.25 11.2075 12.9551 11.2461 12.5771L11.25 12.5V11.5C11.25 11.1118 10.9551 10.7925 10.5772 10.7539L10.5 10.75H9.50002ZM13.5 10.75C13.1119 10.75 12.7925 11.0449 12.7539 11.4229L12.75 11.5V12.5C12.75 12.9142 13.0858 13.25 13.5 13.25H14.5C14.8882 13.25 15.2075 12.9551 15.2461 12.5771L15.25 12.5V11.5C15.25 11.1118 14.9551 10.7925 14.5772 10.7539L14.5 10.75H13.5Z"/>
  </symbol>

  <symbol id="message" viewBox="0 0 24 24">
    <path fill="none" d="M7.5 12H13.5M7.5 8H10.5" stroke="currentColor" stroke-width="1.5" stroke-linecap="round" stroke-linejoin="round"/>
    <path fill="none" d="M8.5 20C9.55038 20.8697 10.8145 21.4238 12.2635 21.5188C13.4052 21.5937 14.5971 21.5936 15.7365 21.5188C16.1288 21.4931 16.5565 21.4007 16.9248 21.251C17.3345 21.0845 17.5395 21.0012 17.6437 21.0138C17.7478 21.0264 17.8989 21.1364 18.2011 21.3563C18.7339 21.744 19.4051 22.0225 20.4005 21.9986C20.9038 21.9865 21.1555 21.9804 21.2681 21.7909C21.3808 21.6013 21.2405 21.3389 20.9598 20.8141C20.5706 20.0862 20.324 19.2529 20.6977 18.5852C21.3413 17.6315 21.8879 16.5021 21.9678 15.2823C22.0107 14.6269 22.0107 13.9481 21.9678 13.2927C21.9146 12.4799 21.7173 11.7073 21.4012 11" stroke="currentColor" stroke-width="1.5" stroke-linecap="round" stroke-linejoin="round"/>
    <path fill="none" d="M12.345 17.4868C15.9006 17.2526 18.7328 14.4069 18.9658 10.8344C19.0114 10.1353 19.0114 9.41131 18.9658 8.71219C18.7328 5.13969 15.9006 2.29401 12.345 2.05985C11.132 1.97997 9.86553 1.98013 8.65499 2.05985C5.09943 2.29401 2.26725 5.13969 2.0342 8.71219C1.9886 9.41131 1.9886 10.1353 2.0342 10.8344C2.11908 12.1356 2.69992 13.3403 3.38372 14.3576C3.78076 15.0697 3.51873 15.9586 3.10518 16.735C2.807 17.2948 2.65791 17.5747 2.77762 17.7769C2.89732 17.9791 3.16472 17.9856 3.69951 17.9985C4.75712 18.024 5.47028 17.7269 6.03638 17.3134C6.35744 17.0788 6.51798 16.9615 6.62862 16.9481C6.73926 16.9346 6.957 17.0234 7.39241 17.2011C7.78374 17.3608 8.23812 17.4593 8.65499 17.4868C9.86553 17.5665 11.132 17.5666 12.345 17.4868Z" stroke="currentColor" stroke-width="1.5" stroke-linejoin="round"/>
  </symbol>

  <symbol id="messageFill" viewBox="0 0 24 24">
    <path fill="currentColor" d="M21.4859 10.5015C21.8494 10.4788 22.1767 10.7207 22.2617 11.0749C22.3659 11.5084 22.4344 11.9557 22.4643 12.4134C22.512 13.145 22.512 13.9016 22.4643 14.6333C22.3682 16.1066 21.7212 17.4294 21.0096 18.4949C20.8323 18.8418 20.9143 19.3954 21.3068 20.1324L21.3272 20.1705C21.4584 20.4167 21.5926 20.6686 21.6709 20.8857C21.7545 21.1176 21.8516 21.5142 21.6178 21.909C21.4051 22.2683 21.0669 22.3957 20.8084 22.4453C20.5968 22.4858 20.3401 22.4919 20.1105 22.4973L20.0686 22.4983C18.8373 22.528 17.9638 22.1749 17.2713 21.669C17.165 21.5914 17.0866 21.5343 17.0256 21.4913C16.9331 21.5265 16.811 21.5762 16.641 21.6455C16.1692 21.838 15.635 21.9528 15.1444 21.9851C13.901 22.067 12.6017 22.0672 11.3558 21.9851C9.85327 21.8862 8.46648 21.3651 7.31325 20.5388C7.02544 20.3326 6.92104 19.9532 7.06284 19.6287C7.20464 19.3043 7.55401 19.1233 7.90084 19.1944C9.79994 19.5842 12.8355 19.6543 15.4813 18.5777C18.0693 17.5247 20.3172 15.3699 20.7871 11.1667C20.8276 10.8047 21.1223 10.5241 21.4859 10.5015Z"/>
    <path fill="currentColor" fill-rule="evenodd" clip-rule="evenodd" d="M12.1443 1.06147C10.8984 0.979424 9.59906 0.979597 8.35571 1.06147C4.42185 1.32054 1.29316 4.46804 1.03579 8.41335C0.98807 9.14497 0.98807 9.90163 1.03579 10.6333C1.13191 12.1066 1.77884 13.4294 2.49047 14.4949C2.66772 14.8418 2.58576 15.3954 2.19322 16.1324L2.17291 16.1705C2.04166 16.4167 1.90744 16.6685 1.82916 16.8857C1.74552 17.1176 1.64847 17.5142 1.88225 17.909C1.96127 18.0425 2.07112 18.1704 2.22404 18.2719C2.37081 18.3692 2.52248 18.4189 2.65415 18.447C2.88549 18.4964 3.16753 18.4984 3.44071 18.4985C4.6671 18.5262 5.53802 18.1736 6.22877 17.669C6.33506 17.5913 6.41347 17.5342 6.47449 17.4913C6.56698 17.5265 6.68915 17.5762 6.85908 17.6455C7.33095 17.838 7.86507 17.9528 8.35571 17.9851C9.59905 18.067 10.8984 18.0672 12.1443 17.9851C16.0781 17.7261 19.2069 14.5785 19.4642 10.6332C19.5119 9.90161 19.5119 9.14493 19.4642 8.41334C19.2068 4.46803 16.0781 1.32054 12.1443 1.06147ZM6.75 7C6.33579 7 6 7.33579 6 7.75C6 8.16421 6.33579 8.5 6.75 8.5H10.75C11.1642 8.5 11.5 8.16421 11.5 7.75C11.5 7.33579 11.1642 7 10.75 7H6.75ZM6.75 12.5H13.75C14.1642 12.5 14.5 12.1642 14.5 11.75C14.5 11.3358 14.1642 11 13.75 11H6.75C6.33579 11 6 11.3358 6 11.75C6 12.1642 6.33579 12.5 6.75 12.5Z"/>
  </symbol>

  <symbol id="user" viewBox="0 0 24 24">
    <path fill="none" d="M19.5056 18.9361C21.5518 17.0704 16.585 14.5564 16.585 14.5564C15.5661 14.0611 14.0378 13.5004 12 13.5C9.96224 13.5004 8.43392 14.0617 7.41504 14.5571C7.41504 14.5571 2.44821 17.071 4.49439 18.9368C5.49393 19.8482 6.60717 20.5 8.00677 20.5L15.9932 20.4994C17.3928 20.4994 18.5061 19.8475 19.5056 18.9361Z" stroke="currentColor" stroke-width="1.5" stroke-linecap="round" stroke-linejoin="round"/>
    <path fill="none" d="M15.5 7C15.5 8.933 13.933 10.5 12 10.5C10.067 10.5 8.5 8.933 8.5 7C8.5 5.067 10.067 3.5 12 3.5C13.933 3.5 15.5 5.067 15.5 7Z" stroke="currentColor" stroke-width="1.5" stroke-linecap="round" stroke-linejoin="round"/>
  </symbol>

  <symbol id="userFill" viewBox="0 0 24 24">
    <path fill="currentColor" d="M3.57016 16.958C5.28835 14.1275 8.60769 12.75 12 12.75C15.3924 12.75 18.7112 14.1274 20.4296 16.958C21.065 18.0047 20.6878 19.215 19.9295 19.9417L19.3931 20.4556C18.8587 20.9677 18.1404 21.25 17.3978 21.25H6.60195C5.85937 21.25 5.14107 20.9677 4.60665 20.4556L4.07034 19.9417C3.31194 19.215 2.9348 18.0047 3.57016 16.958Z"/>
    <path fill="currentColor" d="M7.75 7C7.75 4.65279 9.65279 2.75 12 2.75C14.3472 2.75 16.25 4.65279 16.25 7C16.25 9.34721 14.3472 11.25 12 11.25C9.65279 11.25 7.75 9.34721 7.75 7Z"/>
  </symbol>

  <symbol id="cart" viewBox="0 0 26 26">
    <path fill="none" d="M8.66602 17.3333L18.1128 16.5461C21.0687 16.2998 21.7322 15.6542 22.0598 12.7063L22.7493 6.5" stroke="currentColor" stroke-width="1.5" stroke-linecap="round"/>
    <path fill="none" d="M6.5 6.5H23.8333" stroke="currentColor" stroke-width="1.5" stroke-linecap="round"/>
    <path fill="none" d="M6.50065 23.8333C7.69727 23.8333 8.66732 22.8633 8.66732 21.6667C8.66732 20.47 7.69727 19.5 6.50065 19.5C5.30403 19.5 4.33398 20.47 4.33398 21.6667C4.33398 22.8633 5.30403 23.8333 6.50065 23.8333Z" stroke="currentColor" stroke-width="1.5"/>
    <path fill="none" d="M18.4167 23.8333C19.6133 23.8333 20.5833 22.8633 20.5833 21.6667C20.5833 20.47 19.6133 19.5 18.4167 19.5C17.22 19.5 16.25 20.47 16.25 21.6667C16.25 22.8633 17.22 23.8333 18.4167 23.8333Z" stroke="currentColor" stroke-width="1.5"/>
    <path fill="none" d="M8.66602 21.667H16.2493" stroke="currentColor" stroke-width="1.5" stroke-linecap="round"/>
    <path fill="none" d="M2.16602 2.16699H3.21252C4.23592 2.16699 5.128 2.84363 5.37621 3.80817L8.59941 16.3332C8.76229 16.9662 8.6229 17.6367 8.21994 18.1587L7.18416 19.5003" stroke="currentColor" stroke-width="1.5" stroke-linecap="round"/>
  </symbol>

  <symbol id="filter" viewBox="0 0 24 24">
    <path fill="none" d="M3 5H10M10 5C10 6.10457 10.8954 7 12 7C13.1046 7 14 6.10457 14 5M10 5C10 3.89543 10.8954 3 12 3C13.1046 3 14 3.89543 14 5M3 12H12M19 12H21M19 12C19 13.1046 18.1046 14 17 14C15.8954 14 15 13.1046 15 12C15 10.8954 15.8954 10 17 10C18.1046 10 19 10.8954 19 12ZM14 5H21M12 19H21M3 19H5M5 19C5 20.1046 5.89543 21 7 21C8.10457 21 9 20.1046 9 19C9 17.8954 8.10457 17 7 17C5.89543 17 5 17.8954 5 19Z" stroke="currentColor" stroke-width="1.5" stroke-linecap="round"/>
  </symbol>

  <symbol id="trash" viewBox="0 0 14 14">
    <path fill="none" d="M2.91667 4.6665V10.4998C2.91667 11.7885 3.96134 12.8332 5.25 12.8332H8.75C10.0387 12.8332 11.0833 11.7885 11.0833 10.4998V4.6665M8.16667 6.4165V9.9165M5.83333 6.4165L5.83333 9.9165M9.33333 2.9165L8.51301 1.68602C8.29663 1.36146 7.93236 1.1665 7.54229 1.1665H6.45771C6.06764 1.1665 5.70337 1.36146 5.48699 1.68602L4.66667 2.9165M9.33333 2.9165H4.66667M9.33333 2.9165H12.25M4.66667 2.9165H1.75" stroke="currentColor" stroke-width="1.25" stroke-linecap="round" stroke-linejoin="round"/>
  </symbol>

  <symbol id="plus" viewBox="0 0 14 14">
    <path fill="none" d="M7 3.5V10.5M10.5 7L3.5 7" stroke="currentColor" stroke-width="1.25" stroke-linecap="round" stroke-linejoin="round"/>
  </symbol>

  <symbol id="cart2" viewBox="0 0 18 18">
    <path fill="none" d="M6 12L12.5401 11.455C14.5865 11.2845 15.0458 10.8375 15.2726 8.79667L15.75 4.5" stroke="currentColor" stroke-width="1.25" stroke-linecap="round"/>
    <path fill="none" d="M4.5 4.5H4.875M16.5 4.5H14.625" stroke="currentColor" stroke-width="1.5" stroke-linecap="round"/>
    <path fill="none" d="M7.125 4.5H12.375M9.75 7.125V1.875" stroke="currentColor" stroke-width="1.25" stroke-linecap="round"/>
    <path fill="none" d="M4.5 16.5C5.32843 16.5 6 15.8284 6 15C6 14.1716 5.32843 13.5 4.5 13.5C3.67157 13.5 3 14.1716 3 15C3 15.8284 3.67157 16.5 4.5 16.5Z" stroke="currentColor" stroke-width="1.25"/>
    <path fill="none" d="M12.75 16.5C13.5784 16.5 14.25 15.8284 14.25 15C14.25 14.1716 13.5784 13.5 12.75 13.5C11.9216 13.5 11.25 14.1716 11.25 15C11.25 15.8284 11.9216 16.5 12.75 16.5Z" stroke="currentColor" stroke-width="1.25"/>
    <path fill="none" d="M6 15H11.25" stroke="currentColor" stroke-width="1.25" stroke-linecap="round"/>
    <path fill="none" d="M1.5 1.5H2.2245C2.93301 1.5 3.55061 1.96844 3.72245 2.6362L5.95389 11.3074C6.06665 11.7456 5.97015 12.2098 5.69118 12.5712L4.9741 13.5" stroke="currentColor" stroke-width="1.25" stroke-linecap="round"/>
  </symbol>

  <symbol id="share" viewBox="0 0 20 20">
    <path fill="none" d="M17.5 5.4165C17.5 6.79721 16.3807 7.9165 15 7.9165C13.6192 7.9165 12.5 6.79721 12.5 5.4165C12.5 4.0358 13.6192 2.9165 15 2.9165C16.3807 2.9165 17.5 4.0358 17.5 5.4165Z" stroke="currentColor" stroke-width="1.04167"/>
    <path fill="none" d="M7.5 10C7.5 11.3807 6.38071 12.5 5 12.5C3.61929 12.5 2.5 11.3807 2.5 10C2.5 8.61925 3.61929 7.5 5 7.5C6.38071 7.5 7.5 8.61925 7.5 10Z" stroke="currentColor" stroke-width="1.04167"/>
    <path fill="none" d="M17.5 14.5835C17.5 15.9642 16.3807 17.0835 15 17.0835C13.6192 17.0835 12.5 15.9642 12.5 14.5835C12.5 13.2027 13.6192 12.0835 15 12.0835C16.3807 12.0835 17.5 13.2027 17.5 14.5835Z" stroke="currentColor" stroke-width="1.04167"/>
    <path fill="none" d="M7.27441 8.95759L12.6911 6.45801M7.27441 11.0413L12.6911 13.5409" stroke="currentColor" stroke-width="1.04167"/>
  </symbol>

  <symbol id="more" viewBox="0 0 24 24">
    <path fill="none" d="M21 12C21 11.1716 20.3284 10.5 19.5 10.5C18.6716 10.5 18 11.1716 18 12C18 12.8284 18.6716 13.5 19.5 13.5C20.3284 13.5 21 12.8284 21 12Z" stroke="currentColor"/>
    <path fill="none" d="M13.5 12C13.5 11.1716 12.8284 10.5 12 10.5C11.1716 10.5 10.5 11.1716 10.5 12C10.5 12.8284 11.1716 13.5 12 13.5C12.8284 13.5 13.5 12.8284 13.5 12Z" stroke="currentColor"/>
    <path fill="none" d="M6 12C6 11.1716 5.32843 10.5 4.5 10.5C3.67157 10.5 3 11.1716 3 12C3 12.8284 3.67157 13.5 4.5 13.5C5.32843 13.5 6 12.8284 6 12Z" stroke="currentColor"/>
  </symbol>

  <symbol id="more-vertical" viewBox="0 0 24 24">
    <path d="M11.25 15C11.9404 15 12.5 15.5596 12.5 16.25C12.5 16.9404 11.9404 17.5 11.25 17.5C10.5596 17.5 10 16.9404 10 16.25C10 15.5596 10.5596 15 11.25 15ZM11.25 10C11.9404 10 12.5 10.5596 12.5 11.25C12.5 11.9404 11.9404 12.5 11.25 12.5C10.5596 12.5 10 11.9404 10 11.25C10 10.5596 10.5596 10 11.25 10ZM11.25 5C11.9404 5 12.5 5.55964 12.5 6.25C12.5 6.94036 11.9404 7.5 11.25 7.5C10.5596 7.5 10 6.94036 10 6.25C10 5.55964 10.5596 5 11.25 5Z" fill="currentColor"/>
  </symbol>

  <symbol id="unlock" viewBox="0 0 20 20">
    <path fill="none" d="M3.55618 15.7039C3.74358 17.0958 4.89645 18.1862 6.29939 18.2507C7.4799 18.305 8.67909 18.3333 9.99967 18.3333C11.3203 18.3333 12.5194 18.305 13.6999 18.2507C15.1029 18.1862 16.2558 17.0958 16.4432 15.7039C16.5655 14.7956 16.6663 13.8647 16.6663 12.9167C16.6663 11.9687 16.5655 11.0378 16.4432 10.1294C16.2558 8.7375 15.1029 7.64707 13.6999 7.58257C12.5194 7.52831 11.3203 7.5 9.99967 7.5C8.67909 7.5 7.4799 7.52831 6.29938 7.58257C4.89645 7.64707 3.74358 8.7375 3.55618 10.1294C3.43387 11.0378 3.33301 11.9687 3.33301 12.9167C3.33301 13.8647 3.43387 14.7956 3.55618 15.7039Z" stroke="currentColor" stroke-width="1.5"/>
    <path fill="none" d="M6.25 7.50033V5.41699C6.25 3.34593 7.92893 1.66699 10 1.66699C11.6328 1.66699 12.9167 2.91699 13.3333 4.16699" stroke="currentColor" stroke-width="1.5" stroke-linecap="round" stroke-linejoin="round"/>
    <path fill="none" d="M9.99707 12.917H10.0046" stroke="currentColor" stroke-width="2" stroke-linecap="round" stroke-linejoin="round"/>
  </symbol>

  <symbol id="bag" viewBox="0 0 24 24">
    <path fill="none" d="M17.5 8.75L15.0447 19.5532C15.015 19.684 15 19.8177 15 19.9518C15 20.9449 15.8051 21.75 16.7982 21.75H18" stroke="currentColor" stroke-width="1.5" stroke-linecap="round" stroke-linejoin="round"/>
    <path fill="none" d="M19.2192 21.75H4.78078C3.79728 21.75 3 20.9527 3 19.9692C3 19.8236 3.01786 19.6786 3.05317 19.5373L5.24254 10.7799C5.60631 9.32474 5.78821 8.59718 6.33073 8.17359C6.87325 7.75 7.6232 7.75 9.12311 7.75H14.8769C16.3768 7.75 17.1267 7.75 17.6693 8.17359C18.2118 8.59718 18.3937 9.32474 18.7575 10.7799L20.9468 19.5373C20.9821 19.6786 21 19.8236 21 19.9692C21 20.9527 20.2027 21.75 19.2192 21.75Z" stroke="currentColor" stroke-width="1.5" stroke-linecap="round" stroke-linejoin="round"/>
    <path fill="none" d="M15 7.75V5.75C15 4.09315 13.6569 2.75 12 2.75C10.3431 2.75 9 4.09315 9 5.75V7.75" stroke="currentColor" stroke-width="1.5" stroke-linecap="round" stroke-linejoin="round"/>
    <path fill="none" d="M10 10.75H12.5" stroke="currentColor" stroke-width="1.5" stroke-linecap="round" stroke-linejoin="round"/>
  </symbol>

  <symbol id="app" viewBox="0 0 24 24">
    <path fill="none" d="M10 7C10 8.65685 8.65685 10 7 10C5.34315 10 4 8.65685 4 7C4 5.34315 5.34315 4 7 4C8.65685 4 10 5.34315 10 7Z" stroke="currentColor" stroke-width="1.5"/>
    <path fill="none" d="M14 6C14 4.89543 14.8954 4 16 4H18C19.1046 4 20 4.89543 20 6V8C20 9.10457 19.1046 10 18 10H16C14.8954 10 14 9.10457 14 8V6Z" stroke="currentColor" stroke-width="1.5"/>
    <path fill="none" d="M4 16C4 14.8954 4.89543 14 6 14H8C9.10457 14 10 14.8954 10 16V18C10 19.1046 9.10457 20 8 20H6C4.89543 20 4 19.1046 4 18V16Z" stroke="currentColor" stroke-width="1.5"/>
    <path fill="none" d="M18.1955 18.1955L20 20M19.087 16.0435C19.087 14.3626 17.7243 13 16.0435 13C14.3626 13 13 14.3626 13 16.0435C13 17.7243 14.3626 19.087 16.0435 19.087C17.7243 19.087 19.087 17.7243 19.087 16.0435Z" stroke="currentColor" stroke-width="1.5" stroke-linecap="round" stroke-linejoin="round"/>
  </symbol>

  <symbol id="location" viewBox="0 0 24 24">
    <path fill="none" d="M14.5 9C14.5 10.3807 13.3807 11.5 12 11.5C10.6193 11.5 9.5 10.3807 9.5 9C9.5 7.61929 10.6193 6.5 12 6.5C13.3807 6.5 14.5 7.61929 14.5 9Z" stroke="currentColor" stroke-width="1.5"/>
    <path fill="none" d="M18.2222 17C19.6167 18.9885 20.2838 20.0475 19.8865 20.8999C19.8466 20.9854 19.7999 21.0679 19.7469 21.1467C19.1724 22 17.6875 22 14.7178 22H9.28223C6.31251 22 4.82765 22 4.25311 21.1467C4.20005 21.0679 4.15339 20.9854 4.11355 20.8999C3.71619 20.0475 4.38326 18.9885 5.77778 17" stroke="currentColor" stroke-width="1.5" stroke-linecap="round" stroke-linejoin="round"/>
    <path fill="none" d="M13.2574 17.4936C12.9201 17.8184 12.4693 18 12.0002 18C11.531 18 11.0802 17.8184 10.7429 17.4936C7.6543 14.5008 3.51519 11.1575 5.53371 6.30373C6.6251 3.67932 9.24494 2 12.0002 2C14.7554 2 17.3752 3.67933 18.4666 6.30373C20.4826 11.1514 16.3536 14.5111 13.2574 17.4936Z" stroke="currentColor" stroke-width="1.5"/>
  </symbol>

  <symbol id="bell2" viewBox="0 0 24 24">
    <path d="M5.31328 12.9153L4.56806 12.8307L4.56806 12.8307L5.31328 12.9153ZM5.76046 8.97519L6.50568 9.05977L5.76046 8.97519ZM4.44779 14.8721L3.87668 14.386H3.87668L4.44779 14.8721ZM19.4319 12.8307C19.3852 12.4191 19.0137 12.1233 18.6021 12.17C18.1906 12.2168 17.8948 12.5883 17.9415 12.9998L18.6867 12.9153L19.4319 12.8307ZM19.5522 14.8721L18.9811 15.3583V15.3583L19.5522 14.8721ZM9.73005 4.37366L9.973 5.08322C10.2763 4.97938 10.4801 4.69424 10.4801 4.37366H9.73005ZM13.1539 3.28059C13.4237 3.59487 13.8973 3.6309 14.2115 3.36107C14.5258 3.09125 14.5618 2.61774 14.292 2.30347L13.723 2.79203L13.1539 3.28059ZM15.7023 20.2632C15.8477 19.8753 15.6511 19.4431 15.2632 19.2977C14.8753 19.1523 14.4431 19.3489 14.2977 19.7368L15 20L15.7023 20.2632ZM9.7023 19.7368C9.55694 19.3489 9.12467 19.1523 8.7368 19.2977C8.34893 19.4431 8.15234 19.8753 8.2977 20.2632L9 20L9.7023 19.7368ZM21 7H20.25C20.25 8.24264 19.2426 9.25 18 9.25V10V10.75C20.0711 10.75 21.75 9.07107 21.75 7H21ZM18 10V9.25C16.7574 9.25 15.75 8.24264 15.75 7H15H14.25C14.25 9.07107 15.9289 10.75 18 10.75V10ZM15 7H15.75C15.75 5.75736 16.7574 4.75 18 4.75V4V3.25C15.9289 3.25 14.25 4.92893 14.25 7H15ZM18 4V4.75C19.2426 4.75 20.25 5.75736 20.25 7H21H21.75C21.75 4.92893 20.0711 3.25 18 3.25V4ZM17.7772 18V17.25H6.22281V18V18.75H17.7772V18ZM5.31328 12.9153L6.05849 12.9998L6.50568 9.05977L5.76046 8.97519L5.01525 8.89061L4.56806 12.8307L5.31328 12.9153ZM4.44779 14.8721L5.01889 15.3583C5.59621 14.6801 5.96028 13.8652 6.05849 12.9998L5.31328 12.9153L4.56806 12.8307C4.50519 13.3846 4.27067 13.9231 3.87668 14.386L4.44779 14.8721ZM18.6867 12.9153L17.9415 12.9998C18.0397 13.8652 18.4038 14.6801 18.9811 15.3583L19.5522 14.8721L20.1233 14.386C19.7293 13.9231 19.4948 13.3846 19.4319 12.8307L18.6867 12.9153ZM6.22281 18V17.25C5.56777 17.25 5.10443 16.926 4.89056 16.5492C4.68409 16.1854 4.68714 15.748 5.01889 15.3583L4.44779 14.8721L3.87668 14.386C3.11141 15.285 3.08777 16.4116 3.58598 17.2895C4.07679 18.1544 5.04947 18.75 6.22281 18.75V18ZM17.7772 18V18.75C18.9505 18.75 19.9232 18.1544 20.414 17.2895C20.9122 16.4116 20.8886 15.285 20.1233 14.386L19.5522 14.8721L18.9811 15.3583C19.3129 15.748 19.3159 16.1854 19.1094 16.5492C18.8956 16.926 18.4322 17.25 17.7772 17.25V18ZM9.73005 4.37366H10.4801V4.26995H9.73005H8.98005V4.37366H9.73005ZM5.76046 8.97519L6.50568 9.05977C6.7087 7.27101 8.05587 5.73962 9.973 5.08322L9.73005 4.37366L9.48711 3.6641C7.11944 4.47476 5.29449 6.43026 5.01525 8.89061L5.76046 8.97519ZM12 2V1.25C10.3321 1.25 8.98005 2.60208 8.98005 4.26995H9.73005H10.4801C10.4801 3.4305 11.1606 2.75 12 2.75V2ZM12 2V2.75C12.4613 2.75 12.874 2.95459 13.1539 3.28059L13.723 2.79203L14.292 2.30347C13.7393 1.65971 12.9171 1.25 12 1.25V2ZM15 20L14.2977 19.7368C13.975 20.5979 13.0846 21.25 12 21.25V22V22.75C13.6855 22.75 15.1516 21.7325 15.7023 20.2632L15 20ZM12 22V21.25C10.9154 21.25 10.025 20.5979 9.7023 19.7368L9 20L8.2977 20.2632C8.84835 21.7325 10.3145 22.75 12 22.75V22Z" fill="currentColor"/>
  </symbol>

  <symbol id="mentoring" viewBox="0 0 24 24">
    <path fill="none" d="M12 22L10 16H2L4 22H12ZM12 22H16" stroke="currentColor" stroke-width="1.5" stroke-linecap="round" stroke-linejoin="round"/>
    <path fill="none" d="M12 13V12.5C12 10.6144 12 9.67157 11.4142 9.08579C10.8284 8.5 9.88562 8.5 8 8.5C6.11438 8.5 5.17157 8.5 4.58579 9.08579C4 9.67157 4 10.6144 4 12.5V13" stroke="currentColor" stroke-width="1.5" stroke-linecap="round" stroke-linejoin="round"/>
    <path fill="none" d="M19 13C19 14.1046 18.1046 15 17 15C15.8954 15 15 14.1046 15 13C15 11.8954 15.8954 11 17 11C18.1046 11 19 11.8954 19 13Z" stroke="currentColor" stroke-width="1.5"/>
    <path fill="none" d="M10 4C10 5.10457 9.10457 6 8 6C6.89543 6 6 5.10457 6 4C6 2.89543 6.89543 2 8 2C9.10457 2 10 2.89543 10 4Z" stroke="currentColor" stroke-width="1.5"/>
    <path fill="none" d="M14 17.5H20C21.1046 17.5 22 18.3954 22 19.5V20C22 21.1046 21.1046 22 20 22H19" stroke="currentColor" stroke-width="1.5" stroke-linecap="round"/>
  </symbol>

  <symbol id="computer" viewBox="0 0 24 24">
    <path fill="none" d="M12 17H8C5.17157 17 3.75736 17 2.87868 16.1213C2 15.2426 2 13.8284 2 11V9C2 6.17157 2 4.75736 2.87868 3.87868C3.75736 3 5.17157 3 8 3H16C18.8284 3 20.2426 3 21.1213 3.87868C21.9466 4.70398 21.9968 6.00173 21.9998 8.5" stroke="currentColor" stroke-width="1.5" stroke-linecap="round" stroke-linejoin="round"/>
    <path fill="none" d="M16 14V18C16 19.4142 16 20.1213 16.4393 20.5607C16.8787 21 17.5858 21 19 21C20.4142 21 21.1213 21 21.5607 20.5607C22 20.1213 22 19.4142 22 18V14C22 12.5858 22 11.8787 21.5607 11.4393C21.1213 11 20.4142 11 19 11C17.5858 11 16.8787 11 16.4393 11.4393C16 11.8787 16 12.5858 16 14Z" stroke="currentColor" stroke-width="1.5" stroke-linecap="round" stroke-linejoin="round"/>
    <path fill="none" d="M10 21H8M10 21C10.8284 21 11.5 20.3284 11.5 19.5V17H12M10 21H12.5V17H12M12 17V21" stroke="currentColor" stroke-width="1.5" stroke-linecap="round" stroke-linejoin="round"/>
  </symbol>

  <symbol id="language" viewBox="0 0 24 24">
    <path fill="none" d="M5 5.82759H7.7M7.7 5.82759H9.5M7.7 5.82759V5M11 5.82759H9.5M9.5 5.82759C9.18351 6.95937 8.52075 8.02923 7.76429 8.96946M7.76429 8.96946C7.13788 9.74802 6.44723 10.4377 5.83571 11M7.76429 8.96946C7.37857 8.51724 6.83857 7.78558 6.68429 7.45455M7.76429 8.96946L8.92143 10.1724" stroke="currentColor" stroke-width="1.25" stroke-linecap="round" stroke-linejoin="round"/>
    <path fill="none" d="M18.5 19L17.6667 17L16 13L14.3333 17L13.5 19M14.3333 17H17.6667" stroke="currentColor" stroke-width="1.25" stroke-linecap="round" stroke-linejoin="round"/>
    <path fill="none" d="M14 10V8C14 5.17157 14 3.75736 13.1213 2.87868C12.2426 2 10.8284 2 8 2C5.17157 2 3.75736 2 2.87868 2.87868C2 3.75736 2 5.17157 2 8C2 10.8284 2 12.2426 2.87868 13.1213C3.75736 14 5.17157 14 8 14H10" stroke="currentColor" stroke-width="1.25" stroke-linecap="round"/>
    <path fill="none" d="M10 16C10 13.1716 10 11.7574 10.8787 10.8787C11.7574 10 13.1716 10 16 10C18.8284 10 20.2426 10 21.1213 10.8787C22 11.7574 22 13.1716 22 16C22 18.8284 22 20.2426 21.1213 21.1213C20.2426 22 18.8284 22 16 22C13.1716 22 11.7574 22 10.8787 21.1213C10 20.2426 10 18.8284 10 16Z" stroke="currentColor" stroke-width="1.25"/>
    <path fill="none" d="M4 16.5C4 17.9045 4 18.6067 4.33706 19.1111C4.48298 19.3295 4.67048 19.517 4.88886 19.6629C5.39331 20 6.09554 20 7.5 20" stroke="currentColor" stroke-width="1.25" stroke-linecap="round" stroke-linejoin="round"/>
    <path fill="none" d="M20 7.5C20 6.09554 20 5.39331 19.6629 4.88886C19.517 4.67048 19.3295 4.48298 19.1111 4.33706C18.6067 4 17.9045 4 16.5 4" stroke="currentColor" stroke-width="1.25" stroke-linecap="round" stroke-linejoin="round"/>
  </symbol>

  <symbol id="profit" viewBox="0 0 24 24">
    <path d="M20.1137 15.2814C20.2691 14.8975 20.0838 14.4602 19.6999 14.3048C19.3159 14.1494 18.8787 14.3346 18.7233 14.7186L19.4185 15L20.1137 15.2814ZM3.88631 8.71859C3.73089 9.10254 3.91616 9.53978 4.30011 9.6952C4.68406 9.85062 5.1213 9.66536 5.27672 9.28141L4.58152 9L3.88631 8.71859ZM20 12H20.75C20.75 7.16751 16.8325 3.25 12 3.25V4V4.75C16.0041 4.75 19.25 7.99594 19.25 12H20ZM4 12H3.25C3.25 16.8325 7.16751 20.75 12 20.75V20V19.25C7.99594 19.25 4.75 16.0041 4.75 12H4ZM12 20V20.75C15.6733 20.75 18.8162 18.4867 20.1137 15.2814L19.4185 15L18.7233 14.7186C17.6472 17.3769 15.0414 19.25 12 19.25V20ZM12 4V3.25C8.32669 3.25 5.18379 5.51328 3.88631 8.71859L4.58152 9L5.27672 9.28141C6.35279 6.62306 8.95856 4.75 12 4.75V4Z" fill="currentColor"/>
    <path fill="none" d="M14 10C14 8.89543 13.1046 8 12 8C10.8954 8 10 8.89543 10 10C10 11.1046 10.8954 12 12 12" stroke="currentColor" stroke-width="1.5" stroke-linecap="round"/>
    <path fill="none" d="M12 12C13.1046 12 14 12.8954 14 14C14 15.1046 13.1046 16 12 16C10.8954 16 10 15.1046 10 14" stroke="currentColor" stroke-width="1.5" stroke-linecap="round"/>
    <path fill="none" d="M12 6.5V8" stroke="currentColor" stroke-width="1.5" stroke-linecap="round" stroke-linejoin="round"/>
    <path fill="none" d="M12 16V17.5" stroke="currentColor" stroke-width="1.5" stroke-linecap="round" stroke-linejoin="round"/>
    <path fill="none" d="M18 11L18.8944 11.4472C19.572 11.786 20.3828 11.7129 20.9889 11.2584L22 10.5" stroke="currentColor" stroke-width="1.5" stroke-linecap="round" stroke-linejoin="round"/>
    <path fill="none" d="M2 13L2.89443 12.5528C3.572 12.214 4.38282 12.2871 4.98885 12.7416L6 13.5" stroke="currentColor" stroke-width="1.5" stroke-linecap="round" stroke-linejoin="round"/>
  </symbol>

  <symbol id="document" viewBox="0 0 24 24">
    <path fill="none" d="M14.9805 7.01562C14.9805 7.01562 15.4805 7.51562 15.9805 8.51562C15.9805 8.51562 17.5687 6.01562 18.9805 5.51562" stroke="currentColor" stroke-width="1.5" stroke-linecap="round" stroke-linejoin="round"/>
    <path fill="none" d="M9.99485 2.0214C7.49638 1.91562 5.56612 2.20344 5.56612 2.20344C4.34727 2.29059 2.01146 2.97391 2.01148 6.9646C2.0115 10.9214 1.98564 15.7994 2.01148 17.744C2.01148 18.9321 2.7471 21.7034 5.29326 21.8519C8.3881 22.0325 13.9627 22.0709 16.5204 21.8519C17.2051 21.8133 19.4846 21.2758 19.7731 18.7957C20.072 16.2264 20.0125 14.4408 20.0125 14.0158" stroke="currentColor" stroke-width="1.5" stroke-linecap="round" stroke-linejoin="round"/>
    <path fill="none" d="M21.9998 7.01562C21.9998 9.77705 19.7591 12.0157 16.995 12.0157C14.2309 12.0157 11.9902 9.77705 11.9902 7.01562C11.9902 4.2542 14.2309 2.01562 16.995 2.01562C19.7591 2.01562 21.9998 4.2542 21.9998 7.01562Z" stroke="currentColor" stroke-width="1.5" stroke-linecap="round"/>
    <path fill="none" d="M6.98047 13.0156H10.9804" stroke="currentColor" stroke-width="1.5" stroke-linecap="round"/>
    <path fill="none" d="M6.98047 17.0156H14.9804" stroke="currentColor" stroke-width="1.5" stroke-linecap="round"/>
  </symbol>

  <symbol id="audit" viewBox="0 0 24 24">
    <path fill="none" d="M19 10.5V10C19 6.22876 19 4.34315 17.8284 3.17157C16.6569 2 14.7712 2 11 2C7.22876 2 5.34315 2 4.17157 3.17157C3 4.34315 3 6.22876 3 10V16C3 17.8638 3 18.7956 3.30448 19.5307C3.71046 20.5108 4.48915 21.2895 5.46927 21.6955C6.20435 22 7.13623 22 9 22" stroke="currentColor" stroke-width="1.5" stroke-linecap="round" stroke-linejoin="round"/>
    <path fill="none" d="M7 7H15M7 11H11" stroke="currentColor" stroke-width="1.5" stroke-linecap="round"/>
    <path fill="none" d="M15.2825 19.0044C15.2235 18.1157 15.118 17.1658 14.6817 16.0917C14.3095 15.1756 14.4132 13.0205 16.5 13.0205C18.5868 13.0205 18.6664 15.1756 18.2942 16.0917C17.8578 17.1658 17.7765 18.1157 17.7175 19.0044M21 22H12V20.7543C12 20.3078 12.2664 19.9154 12.6528 19.7928L14.9076 19.077C15.0684 19.0259 15.2348 19 15.4021 19H17.5979C17.7652 19 17.9316 19.0259 18.0924 19.077L20.3472 19.7928C20.7336 19.9154 21 20.3078 21 20.7543V22Z" stroke="currentColor" stroke-width="1.5" stroke-linecap="round" stroke-linejoin="round"/>
  </symbol>

  <symbol id="smartphone" viewBox="0 0 24 24">
    <path fill="none" d="M19.0483 16.4922C20.2541 15.3405 21 13.7495 21 11.9922C21 10.2348 20.2541 8.64384 19.0483 7.49219M17 9.74219C17.6029 10.318 17.9759 11.1135 17.9759 11.9922C17.9759 12.8709 17.6029 13.6664 17 14.2422" stroke="currentColor" stroke-width="1.5" stroke-linecap="round" stroke-linejoin="round"/>
    <path fill="none" d="M16 7C16 4.64298 16 3.46447 15.2678 2.73223C14.5355 2 13.357 2 11 2H8C5.64298 2 4.46447 2 3.73223 2.73223C3 3.46447 3 4.64298 3 7V17C3 19.357 3 20.5355 3.73223 21.2678C4.46447 22 5.64298 22 8 22H11C13.357 22 14.5355 22 15.2678 21.2678C16 20.5355 16 19.357 16 17" stroke="currentColor" stroke-width="1.5" stroke-linecap="round" stroke-linejoin="round"/>
    <path fill="none" d="M11.5 2H7.5L8 3H11L11.5 2Z" stroke="currentColor" stroke-width="1.5" stroke-linecap="round" stroke-linejoin="round"/>
  </symbol>

  <symbol id="lockKey" viewBox="0 0 24 24">
    <path fill="none" d="M18 10.997C17.6078 10.1967 16.5481 9.02147 14.3703 9.07148C14.3703 9.07148 12.6431 8.99646 10.6906 8.99646C8.7382 8.99646 7.82413 9.04218 6.26004 9.07148C5.25877 9.04647 3.35634 9.27154 2.48023 11.3471C1.9045 13.0975 1.87946 16.7735 2.22991 18.624C2.30501 19.5743 2.80564 20.8997 4.35762 21.5999C5.30883 22.1 6.83578 21.8999 7.98725 22M5.9847 8.19624C5.93463 5.82059 5.8345 3.94508 8.58801 2.39466C9.51419 2.01956 10.8909 1.69447 12.5931 2.49469C14.3703 3.56998 14.5917 4.70796 14.7458 4.99537C15.1713 6.12068 14.9461 7.72111 14.9961 8.37129" stroke="currentColor" stroke-width="1.5" stroke-linecap="round"/>
    <path fill="none" d="M15.5 19.7358C15.5 20.9799 14.4911 21.9663 13.2552 21.9663C12.0194 21.9663 11 20.9799 11 19.7358C11 18.4918 12.0194 17.4922 13.2552 17.4922C14.4911 17.4922 15.5 18.4918 15.5 19.7358Z" stroke="currentColor" stroke-width="1.5"/>
    <path fill="none" d="M21.9996 15.8472L20.3726 14.3079C19.5996 13.5682 18.9496 14.2139 18.6259 14.4896L17.2151 15.8472L15.2246 17.7899M17.2151 15.8472L18.8246 17.3926" stroke="currentColor" stroke-width="1.5" stroke-linecap="round"/>
  </symbol>

  <symbol id="accountDel" viewBox="0 0 24 24">
    <path fill="none" d="M14 6C14 8.20914 12.2091 10 10 10C7.79086 10 6 8.20914 6 6C6 3.79086 7.79086 2 10 2C12.2091 2 14 3.79086 14 6Z" stroke="currentColor" stroke-width="1.5" stroke-linecap="round" stroke-linejoin="round"/>
    <path fill="none" d="M18.5 19L17 18.4V16M13 18C13 20.2091 14.7909 22 17 22C19.2091 22 21 20.2091 21 18C21 15.7909 19.2091 14 17 14C14.7909 14 13 15.7909 13 18Z" stroke="currentColor" stroke-width="1.5" stroke-linecap="round" stroke-linejoin="round"/>
    <path fill="none" d="M10.5 20H5C3.89543 20 3 19.1046 3 18C3 15.2386 5.23858 13 8 13H12.5" stroke="currentColor" stroke-width="1.5" stroke-linecap="round" stroke-linejoin="round"/>
  </symbol>

  <symbol id="logout" viewBox="0 0 24 24">
    <path fill="none" d="M15 17.625C14.9264 19.4769 13.3831 21.0494 11.3156 20.9988C10.8346 20.987 10.2401 20.8194 9.05112 20.484C6.18961 19.6768 3.70555 18.3203 3.10956 15.2815C3 14.723 3 14.0944 3 12.8373V11.1627C3 9.90561 3 9.27705 3.10956 8.71846C3.70555 5.67965 6.18961 4.32316 9.05112 3.51603C10.2401 3.18064 10.8346 3.01295 11.3156 3.00119C13.3831 2.95061 14.9264 4.52307 15 6.37501" stroke="currentColor" stroke-width="1.5" stroke-linecap="round"/>
    <path fill="none" d="M21 12H10M21 12C21 11.2998 19.0057 9.99153 18.5 9.5M21 12C21 12.7002 19.0057 14.0085 18.5 14.5" stroke="currentColor" stroke-width="1.5" stroke-linecap="round" stroke-linejoin="round"/>
  </symbol>

  <symbol id="camera" viewBox="0 0 14 14">
    <path fill="none" d="M4.08366 4.08333L4.60541 3.03983C4.91919 2.41226 5.07608 2.09848 5.35801 1.92424C5.63994 1.75 5.99075 1.75 6.69238 1.75H7.30827C8.0099 1.75 8.36072 1.75 8.64264 1.92424C8.92457 2.09848 9.08148 2.41226 9.39526 3.03984L9.91699 4.08333C11.0074 4.08333 11.5525 4.08333 11.9587 4.31779C12.2247 4.47138 12.4456 4.6923 12.5992 4.95833C12.8337 5.36442 12.8337 5.90963 12.8337 7V8.75C12.8337 10.3999 12.8337 11.2248 12.3211 11.7374C11.8085 12.25 10.9836 12.25 9.33366 12.25H4.66699C3.01707 12.25 2.19212 12.25 1.67956 11.7374C1.16699 11.2248 1.16699 10.3999 1.16699 8.75V7C1.16699 5.90963 1.16699 5.36442 1.40145 4.95833C1.55504 4.6923 1.77596 4.47138 2.04199 4.31779C2.44808 4.08333 2.99327 4.08333 4.08366 4.08333ZM4.08366 4.08333H7.00033" stroke="currentColor" stroke-width="1.25" stroke-linecap="round" stroke-linejoin="round"/>
    <path fill="none" d="M9.04134 8.16667C9.04134 9.29425 8.12726 10.2083 6.99967 10.2083C5.87209 10.2083 4.95801 9.29425 4.95801 8.16667C4.95801 7.03908 5.87209 6.125 6.99967 6.125C8.12726 6.125 9.04134 7.03908 9.04134 8.16667Z" stroke="currentColor" stroke-width="1.25" stroke-linecap="round" stroke-linejoin="round"/>
    <path fill="none" d="M11.083 5.83301V5.83949" stroke="currentColor" stroke-width="2" stroke-linecap="round" stroke-linejoin="round"/>
  </symbol>

  <symbol id="arrowRight" viewBox="0 0 24 24">
    <path fill="none" d="M10 7L14 12L10 17" stroke="currentColor" stroke-width="1.5" stroke-linecap="round" stroke-linejoin="round"/>
  </symbol>

  <symbol id="truck" viewBox="0 0 24 24">
    <path fill="currentColor" d="M23.9456 10.9688L22.6331 7.6875C22.5218 7.40988 22.3296 7.17209 22.0816 7.00494C21.8335 6.83778 21.541 6.74897 21.2419 6.75H18V6C18 5.80109 17.921 5.61032 17.7803 5.46967C17.6397 5.32902 17.4489 5.25 17.25 5.25H3C2.60218 5.25 2.22064 5.40804 1.93934 5.68934C1.65804 5.97064 1.5 6.35218 1.5 6.75V17.25C1.5 17.6478 1.65804 18.0294 1.93934 18.3107C2.22064 18.592 2.60218 18.75 3 18.75H4.59375C4.75898 19.3953 5.13428 19.9673 5.66048 20.3757C6.18669 20.7842 6.83387 21.0059 7.5 21.0059C8.16613 21.0059 8.81331 20.7842 9.33952 20.3757C9.86573 19.9673 10.241 19.3953 10.4063 18.75H15.0938C15.259 19.3953 15.6343 19.9673 16.1605 20.3757C16.6867 20.7842 17.3339 21.0059 18 21.0059C18.6661 21.0059 19.3133 20.7842 19.8395 20.3757C20.3657 19.9673 20.741 19.3953 20.9063 18.75H22.5C22.8978 18.75 23.2794 18.592 23.5607 18.3107C23.842 18.0294 24 17.6478 24 17.25V11.25C24.0003 11.1536 23.9818 11.0581 23.9456 10.9688ZM18 8.25H21.2419L22.1419 10.5H18V8.25ZM3 6.75H16.5V12.75H3V6.75ZM7.5 19.5C7.20333 19.5 6.91332 19.412 6.66665 19.2472C6.41997 19.0824 6.22771 18.8481 6.11418 18.574C6.00065 18.2999 5.97094 17.9983 6.02882 17.7074C6.0867 17.4164 6.22956 17.1491 6.43934 16.9393C6.64912 16.7296 6.91639 16.5867 7.20737 16.5288C7.49834 16.4709 7.79994 16.5006 8.07403 16.6142C8.34811 16.7277 8.58238 16.92 8.7472 17.1666C8.91203 17.4133 9 17.7033 9 18C9 18.3978 8.84197 18.7794 8.56066 19.0607C8.27936 19.342 7.89783 19.5 7.5 19.5ZM15.0938 17.25H10.4063C10.241 16.6047 9.86573 16.0327 9.33952 15.6243C8.81331 15.2158 8.16613 14.9941 7.5 14.9941C6.83387 14.9941 6.18669 15.2158 5.66048 15.6243C5.13428 16.0327 4.75898 16.6047 4.59375 17.25H3V14.25H16.5V15.4041C16.1551 15.6034 15.8532 15.8692 15.6119 16.1861C15.3705 16.5029 15.1944 16.8646 15.0938 17.25ZM18 19.5C17.7033 19.5 17.4133 19.412 17.1666 19.2472C16.92 19.0824 16.7277 18.8481 16.6142 18.574C16.5007 18.2999 16.4709 17.9983 16.5288 17.7074C16.5867 17.4164 16.7296 17.1491 16.9393 16.9393C17.1491 16.7296 17.4164 16.5867 17.7074 16.5288C17.9983 16.4709 18.2999 16.5006 18.574 16.6142C18.8481 16.7277 19.0824 16.92 19.2472 17.1666C19.412 17.4133 19.5 17.7033 19.5 18C19.5 18.3978 19.342 18.7794 19.0607 19.0607C18.7794 19.342 18.3978 19.5 18 19.5ZM22.5 17.25H20.9063C20.739 16.6063 20.363 16.0362 19.8371 15.629C19.3112 15.2218 18.6651 15.0006 18 15V12H22.5V17.25Z"/>
  </symbol>

  <symbol id="question" viewBox="0 0 24 24">
    <path fill="currentColor" d="M13.125 16.875C13.125 17.0975 13.059 17.315 12.9354 17.5C12.8118 17.685 12.6361 17.8292 12.4305 17.9144C12.225 17.9995 11.9988 18.0218 11.7805 17.9784C11.5623 17.935 11.3618 17.8278 11.2045 17.6705C11.0472 17.5132 10.94 17.3127 10.8966 17.0945C10.8532 16.8762 10.8755 16.65 10.9606 16.4445C11.0458 16.2389 11.19 16.0632 11.375 15.9396C11.56 15.816 11.7775 15.75 12 15.75C12.2984 15.75 12.5845 15.8685 12.7955 16.0795C13.0065 16.2905 13.125 16.5766 13.125 16.875ZM12 6.75C9.93188 6.75 8.25 8.26406 8.25 10.125V10.5C8.25 10.6989 8.32902 10.8897 8.46967 11.0303C8.61033 11.171 8.80109 11.25 9 11.25C9.19892 11.25 9.38968 11.171 9.53033 11.0303C9.67099 10.8897 9.75 10.6989 9.75 10.5V10.125C9.75 9.09375 10.7597 8.25 12 8.25C13.2403 8.25 14.25 9.09375 14.25 10.125C14.25 11.1562 13.2403 12 12 12C11.8011 12 11.6103 12.079 11.4697 12.2197C11.329 12.3603 11.25 12.5511 11.25 12.75V13.5C11.25 13.6989 11.329 13.8897 11.4697 14.0303C11.6103 14.171 11.8011 14.25 12 14.25C12.1989 14.25 12.3897 14.171 12.5303 14.0303C12.671 13.8897 12.75 13.6989 12.75 13.5V13.4325C14.46 13.1184 15.75 11.7544 15.75 10.125C15.75 8.26406 14.0681 6.75 12 6.75ZM21.75 12C21.75 13.9284 21.1782 15.8134 20.1068 17.4168C19.0355 19.0202 17.5127 20.2699 15.7312 21.0078C13.9496 21.7458 11.9892 21.9389 10.0979 21.5627C8.20656 21.1865 6.46928 20.2579 5.10571 18.8943C3.74215 17.5307 2.81355 15.7934 2.43735 13.9021C2.06114 12.0108 2.25422 10.0504 2.99218 8.26884C3.73013 6.48726 4.97982 4.96451 6.58319 3.89317C8.18657 2.82183 10.0716 2.25 12 2.25C14.585 2.25273 17.0634 3.28084 18.8913 5.10872C20.7192 6.93661 21.7473 9.41498 21.75 12ZM20.25 12C20.25 10.3683 19.7661 8.77325 18.8596 7.41655C17.9531 6.05984 16.6646 5.00242 15.1571 4.37799C13.6497 3.75357 11.9909 3.59019 10.3905 3.90852C8.79017 4.22685 7.32016 5.01259 6.16637 6.16637C5.01259 7.32015 4.22685 8.79016 3.90853 10.3905C3.5902 11.9908 3.75358 13.6496 4.378 15.1571C5.00242 16.6646 6.05984 17.9531 7.41655 18.8596C8.77326 19.7661 10.3683 20.25 12 20.25C14.1873 20.2475 16.2843 19.3775 17.8309 17.8309C19.3775 16.2843 20.2475 14.1873 20.25 12Z"/>
  </symbol>

</svg>