<svg xmlns="http://www.w3.org/2000/svg">

  <symbol id="bell" viewBox="0 0 24 24">
    <path fill="none" d="M15.5 18C15.5 19.933 13.933 21.5 12 21.5C10.067 21.5 8.5 19.933 8.5 18" stroke="currentColor" stroke-width="1.5" stroke-linecap="round" stroke-linejoin="round"/>
    <path fill="none" d="M19.2311 18H4.76887C3.79195 18 3 17.208 3 16.2311C3 15.762 3.18636 15.3121 3.51809 14.9803L4.12132 14.3771C4.68393 13.8145 5 13.0514 5 12.2558V9.5C5 5.63401 8.13401 2.5 12 2.5C15.866 2.5 19 5.634 19 9.5V12.2558C19 13.0514 19.3161 13.8145 19.8787 14.3771L20.4819 14.9803C20.8136 15.3121 21 15.762 21 16.2311C21 17.208 20.208 18 19.2311 18Z" stroke="currentColor" stroke-width="1.5" stroke-linecap="round" stroke-linejoin="round"/>
  </symbol>

  <symbol id="arrow-down" viewBox="0 0 10 5">
    <path d="M8.625 0.625L4.625 3.825L0.625 0.624999" stroke="currentColor" fill="none" stroke-width="1.25" stroke-linecap="round" stroke-linejoin="round" />
  </symbol>

  <symbol id="search" viewBox="0 0 20 20">
    <path fill="none" d="M12.5 12.5L13.75 13.75" stroke="currentColor" stroke-width="1.25" stroke-linecap="round" stroke-linejoin="round"/>
    <path fill="none" d="M14.1111 15.8543C13.6296 15.3729 13.6296 14.5924 14.1111 14.1111C14.5924 13.6296 15.3729 13.6296 15.8543 14.1111L17.5556 15.8123C18.037 16.2937 18.037 17.0742 17.5556 17.5556C17.0742 18.037 16.2937 18.037 15.8123 17.5556L14.1111 15.8543Z" stroke="currentColor" stroke-width="1.25" stroke-linecap="round" stroke-linejoin="round"/>
    <path fill="none" d="M13.7497 7.91683C13.7497 4.69517 11.138 2.0835 7.91634 2.0835C4.69468 2.0835 2.08301 4.69517 2.08301 7.91683C2.08301 11.1385 4.69468 13.7502 7.91634 13.7502C11.138 13.7502 13.7497 11.1385 13.7497 7.91683Z" stroke="currentColor" stroke-width="1.25" stroke-linecap="round" stroke-linejoin="round"/>
  </symbol>

  <symbol id="search2" viewBox="0 0 18 18">
    <path fill="none" d="M14.625 12.5307L16.0663 13.9719C16.6446 14.5503 16.6446 15.4879 16.0663 16.0663C15.4879 16.6446 14.5503 16.6446 13.9719 16.0663L12.5307 14.625M1.5 7.875C1.5 4.35418 4.35418 1.5 7.875 1.5C11.3958 1.5 14.25 4.35418 14.25 7.875C14.25 11.3958 11.3958 14.25 7.875 14.25C4.35418 14.25 1.5 11.3958 1.5 7.875Z" stroke="currentColor" stroke-width="1.25" stroke-linecap="round"/>
  </symbol>

  <symbol id="back" viewBox="0 0 24 24">
    <path fill="none" d="M5 12H19" stroke="currentColor" stroke-width="2" stroke-linecap="round" stroke-linejoin="round"/>
    <path fill="none" d="M5 12L9 16" stroke="currentColor" stroke-width="2" stroke-linecap="round" stroke-linejoin="round"/>
    <path fill="none" d="M5 12L9 8" stroke="currentColor" stroke-width="2" stroke-linecap="round" stroke-linejoin="round"/>
  </symbol>

  <symbol id="filterSearch" viewBox="0 0 24 24">
    <path fill="none" d="M2.5 9.5H6.5" stroke="currentColor" stroke-width="1.5" stroke-linecap="round" stroke-linejoin="round"/>
    <path fill="none" d="M2.5 14.5H6.5" stroke="currentColor" stroke-width="1.5" stroke-linecap="round" stroke-linejoin="round"/>
    <path fill="none" d="M2.5 19.5H18.5" stroke="currentColor" stroke-width="1.5" stroke-linecap="round" stroke-linejoin="round"/>
    <path fill="none" d="M18.5355 13.0355L21.5 16M20 9.5C20 6.73858 17.7614 4.5 15 4.5C12.2386 4.5 10 6.73858 10 9.5C10 12.2614 12.2386 14.5 15 14.5C17.7614 14.5 20 12.2614 20 9.5Z" stroke="currentColor" stroke-width="1.5" stroke-linecap="round" stroke-linejoin="round"/>
  </symbol>

  <symbol id="hearth" viewBox="0 0 24 24">
    <path fill="none" d="M10.4107 19.9677C7.58942 17.858 2 13.0348 2 8.69444C2 5.82563 4.10526 3.5 7 3.5C8.5 3.5 10 4 12 6C14 4 15.5 3.5 17 3.5C19.8947 3.5 22 5.82563 22 8.69444C22 13.0348 16.4106 17.858 13.5893 19.9677C12.6399 20.6776 11.3601 20.6776 10.4107 19.9677Z" stroke="currentColor" stroke-width="1.5" stroke-linecap="round" stroke-linejoin="round"/>
  </symbol>

  <symbol id="hearthFill" viewBox="0 0 24 24">
    <path fill="currentColor" d="M11.6143 21.1436C11.8516 21.2858 12.1484 21.2858 12.3857 21.1436C12.6661 20.9637 13.5137 20.4196 13.9912 20.0869C14.9449 19.4224 16.2205 18.4732 17.499 17.335C18.7743 16.1996 20.0728 14.8587 21.0576 13.4102C22.0377 11.9685 22.75 10.3565 22.75 8.69434C22.7499 5.45202 20.3484 2.75 17 2.75C15.4082 2.75 13.8662 3.26268 12 4.96484C10.1338 3.26268 8.59184 2.75 7 2.75C3.65156 2.75 1.25005 5.45202 1.25 8.69434C1.25 10.3565 1.96225 11.9685 2.94238 13.4102C3.92725 14.8587 5.22567 16.1996 6.50098 17.335C7.77947 18.4732 9.05506 19.4224 10.0088 20.0869C10.4863 20.4196 11.3339 20.9637 11.6143 21.1436Z"/>
  </symbol>

  <symbol id="star" viewBox="0 0 18 18">
    <path d="M1.67174 8.31557L4.77603 11.1266L3.84612 15.3117C3.79692 15.5305 3.81096 15.7595 3.88649 15.97C3.96203 16.1806 4.0957 16.3634 4.27081 16.4955C4.44592 16.6277 4.65468 16.7033 4.871 16.713C5.08733 16.7228 5.30161 16.6661 5.48706 16.5501L9.00503 14.3362L12.5154 16.5501C12.7009 16.6661 12.9152 16.7228 13.1315 16.713C13.3478 16.7033 13.5566 16.6277 13.7317 16.4955C13.9068 16.3634 14.0405 16.1806 14.116 15.97C14.1915 15.7595 14.2056 15.5305 14.1564 15.3117L13.2278 11.1309L16.3328 8.31557C16.497 8.1686 16.6158 7.9746 16.6742 7.75789C16.7326 7.54118 16.728 7.31141 16.661 7.09739C16.5941 6.88336 16.4677 6.69462 16.2977 6.55483C16.1278 6.41503 15.9219 6.3304 15.7058 6.31156L11.613 5.94376L10.0155 1.99002C9.93205 1.78256 9.79133 1.60536 9.61103 1.48071C9.43074 1.35606 9.21893 1.28955 9.00228 1.28955C8.78563 1.28955 8.57382 1.35606 8.39352 1.48071C8.21323 1.60536 8.07251 1.78256 7.98908 1.99002L6.38669 5.94376L2.29535 6.31156C2.07925 6.3304 1.87331 6.41503 1.70337 6.55483C1.53344 6.69462 1.40706 6.88336 1.34009 7.09739C1.27312 7.31141 1.26855 7.54118 1.32693 7.75789C1.38532 7.9746 1.50407 8.1686 1.6683 8.31557H1.67174Z" fill="currentColor"/>    
  </symbol>

  <symbol id="badgeCheck" viewBox="0 0 14 14">
    <path d="M12.3532 4.79907V3.07824C12.3532 2.69147 12.1996 2.32053 11.9261 2.04704C11.6526 1.77355 11.2817 1.61991 10.8949 1.61991H9.21053L8.0147 0.424073C7.74146 0.152457 7.37184 0 6.98657 0C6.6013 0 6.23168 0.152457 5.95845 0.424073L4.79907 1.61991H3.07824C2.69147 1.61991 2.32053 1.77355 2.04704 2.04704C1.77355 2.32053 1.61991 2.69147 1.61991 3.07824V4.79907L0.424073 5.95845C0.152457 6.23168 0 6.6013 0 6.98657C0 7.37184 0.152457 7.74146 0.424073 8.0147L1.61991 9.21053V10.8949C1.61991 11.2817 1.77355 11.6526 2.04704 11.9261C2.32053 12.1996 2.69147 12.3532 3.07824 12.3532H4.79907L5.95845 13.5491C6.23168 13.8207 6.6013 13.9731 6.98657 13.9731C7.37184 13.9731 7.74146 13.8207 8.0147 13.5491L9.21053 12.3532H10.8949C11.2817 12.3532 11.6526 12.1996 11.9261 11.9261C12.1996 11.6526 12.3532 11.2817 12.3532 10.8949V9.21053L13.5491 8.0147C13.8207 7.74146 13.9731 7.37184 13.9731 6.98657C13.9731 6.6013 13.8207 6.23168 13.5491 5.95845L12.3532 4.79907Z" fill="currentColor"/>
    <path d="M6.441 8.80937C6.34504 8.80993 6.24991 8.79153 6.16107 8.75525C6.07223 8.71896 5.99143 8.66549 5.9233 8.59791L4.80038 7.50416C4.66307 7.36686 4.58594 7.18063 4.58594 6.98646C4.58594 6.79228 4.66307 6.60605 4.80038 6.46875C4.93768 6.33144 5.12391 6.25431 5.31809 6.25431C5.51227 6.25431 5.69849 6.33144 5.8358 6.46875L6.41184 7.05208L8.08163 5.375C8.21893 5.22996 8.40823 5.1454 8.60788 5.13993C8.80753 5.13446 9.00117 5.20853 9.14621 5.34583C9.29125 5.48314 9.37581 5.67243 9.38128 5.87208C9.38675 6.07173 9.31268 6.26537 9.17538 6.41041L6.98788 8.59791C6.91632 8.66909 6.83077 8.72463 6.73663 8.76103C6.6425 8.79743 6.54183 8.81389 6.441 8.80937Z" fill="white"/>    
  </symbol>

  <symbol id="hanger" viewBox="0 0 16 16">
    <path fill="none" d="M2.75048 10.5777L8 7.6665L13.2495 10.5777C13.7131 10.8384 14 11.329 14 11.8609C14 12.674 13.3409 13.3332 12.5277 13.3332H3.47227C2.65916 13.3332 2 12.674 2 11.8609C2 11.329 2.28689 10.8384 2.75048 10.5777Z" stroke="currentColor" stroke-width="1.5" stroke-linecap="round" stroke-linejoin="round"/>
    <path fill="none" d="M6.66797 4.60334C6.66797 3.90202 7.2649 3.3335 8.0013 3.3335C8.7377 3.3335 9.33464 3.90202 9.33464 4.60334C9.33464 5.08318 9.05517 5.50087 8.64284 5.71682C8.31664 5.88762 8.0013 6.00016 8.0013 6.00016V7.66683" stroke="currentColor" stroke-width="1.5" stroke-linecap="round" stroke-linejoin="round"/>
  </symbol>

  <symbol id="home" viewBox="0 0 24 24">
    <path fill="none" d="M22 10.5L12.8825 2.82207C12.6355 2.61407 12.3229 2.5 12 2.5C11.6771 2.5 11.3645 2.61407 11.1175 2.82207L2 10.5" stroke="#1E293B" stroke-width="1.5" stroke-linecap="round" stroke-linejoin="round"/>
    <path fill="none" d="M20.5 5V15.5C20.5 18.3284 20.5 19.7426 19.6213 20.6213C18.7426 21.5 17.3284 21.5 14.5 21.5H9.5C6.67157 21.5 5.25736 21.5 4.37868 20.6213C3.5 19.7426 3.5 18.3284 3.5 15.5V9.5" stroke="currentColor" stroke-width="1.5" stroke-linecap="round" stroke-linejoin="round"/>
    <path fill="none" d="M10.5 11.5H9.5V12.5H10.5V11.5Z" stroke="currentColor" stroke-width="1.5" stroke-linecap="round" stroke-linejoin="round"/>
    <path fill="none" d="M14.5 11.5H13.5V12.5H14.5V11.5Z" stroke="currentColor" stroke-width="1.5" stroke-linecap="round" stroke-linejoin="round"/>
    <path fill="none" d="M10.5 15.5H9.5V16.5H10.5V15.5Z" stroke="currentColor" stroke-width="1.5" stroke-linecap="round" stroke-linejoin="round"/>
    <path fill="none" d="M14.5 15.5H13.5V16.5H14.5V15.5Z" stroke="currentColor" stroke-width="1.5" stroke-linecap="round" stroke-linejoin="round"/>
  </symbol>

  <symbol id="homeFill" viewBox="0 0 24 24">
    <path  fill="currentColor" d="M12 1.75C12.546 1.75 13.0746 1.94268 13.4922 2.29395L19.3301 7.2041V5.16699C19.3301 4.62795 19.767 4.19058 20.3067 4.19043C20.8464 4.19043 21.2842 4.62786 21.2842 5.16699V8.84863L22.4024 9.78906L22.4756 9.85742C22.8201 10.2127 22.8463 10.7785 22.5205 11.165C22.2104 11.5326 21.6867 11.613 21.2842 11.3799V19.3213C21.2842 20.9386 19.9717 22.2499 18.3526 22.25H5.64748C4.02836 22.2499 2.71584 20.9386 2.71584 19.3213V11.3799C2.31337 11.613 1.78968 11.5326 1.47951 11.165C1.13205 10.7528 1.18518 10.1364 1.59768 9.78906L10.5088 2.29395L10.6699 2.16992C11.0583 1.89775 11.5223 1.75 12 1.75ZM9.50002 14.75C9.11185 14.75 8.79255 15.0449 8.75393 15.4229L8.75002 15.5V16.5C8.75002 16.6989 8.82909 16.8896 8.96975 17.0303C9.1104 17.1709 9.30111 17.25 9.50002 17.25H10.5C10.8882 17.25 11.2075 16.9551 11.2461 16.5771L11.25 16.5V15.5C11.25 15.1118 10.9551 14.7925 10.5772 14.7539L10.5 14.75H9.50002ZM13.5 14.75C13.1119 14.75 12.7925 15.0449 12.7539 15.4229L12.75 15.5V16.5C12.75 16.6989 12.8291 16.8896 12.9697 17.0303C13.1104 17.1709 13.3011 17.25 13.5 17.25H14.5C14.8882 17.25 15.2075 16.9551 15.2461 16.5771L15.25 16.5V15.5C15.25 15.1118 14.9551 14.7925 14.5772 14.7539L14.5 14.75H13.5ZM9.50002 10.75C9.11185 10.75 8.79255 11.0449 8.75393 11.4229L8.75002 11.5V12.5C8.75002 12.9142 9.08581 13.25 9.50002 13.25H10.5C10.8882 13.25 11.2075 12.9551 11.2461 12.5771L11.25 12.5V11.5C11.25 11.1118 10.9551 10.7925 10.5772 10.7539L10.5 10.75H9.50002ZM13.5 10.75C13.1119 10.75 12.7925 11.0449 12.7539 11.4229L12.75 11.5V12.5C12.75 12.9142 13.0858 13.25 13.5 13.25H14.5C14.8882 13.25 15.2075 12.9551 15.2461 12.5771L15.25 12.5V11.5C15.25 11.1118 14.9551 10.7925 14.5772 10.7539L14.5 10.75H13.5Z"/>
  </symbol>

  <symbol id="message" viewBox="0 0 24 24">
    <path fill="none" d="M7.5 12H13.5M7.5 8H10.5" stroke="currentColor" stroke-width="1.5" stroke-linecap="round" stroke-linejoin="round"/>
    <path fill="none" d="M8.5 20C9.55038 20.8697 10.8145 21.4238 12.2635 21.5188C13.4052 21.5937 14.5971 21.5936 15.7365 21.5188C16.1288 21.4931 16.5565 21.4007 16.9248 21.251C17.3345 21.0845 17.5395 21.0012 17.6437 21.0138C17.7478 21.0264 17.8989 21.1364 18.2011 21.3563C18.7339 21.744 19.4051 22.0225 20.4005 21.9986C20.9038 21.9865 21.1555 21.9804 21.2681 21.7909C21.3808 21.6013 21.2405 21.3389 20.9598 20.8141C20.5706 20.0862 20.324 19.2529 20.6977 18.5852C21.3413 17.6315 21.8879 16.5021 21.9678 15.2823C22.0107 14.6269 22.0107 13.9481 21.9678 13.2927C21.9146 12.4799 21.7173 11.7073 21.4012 11" stroke="currentColor" stroke-width="1.5" stroke-linecap="round" stroke-linejoin="round"/>
    <path fill="none" d="M12.345 17.4868C15.9006 17.2526 18.7328 14.4069 18.9658 10.8344C19.0114 10.1353 19.0114 9.41131 18.9658 8.71219C18.7328 5.13969 15.9006 2.29401 12.345 2.05985C11.132 1.97997 9.86553 1.98013 8.65499 2.05985C5.09943 2.29401 2.26725 5.13969 2.0342 8.71219C1.9886 9.41131 1.9886 10.1353 2.0342 10.8344C2.11908 12.1356 2.69992 13.3403 3.38372 14.3576C3.78076 15.0697 3.51873 15.9586 3.10518 16.735C2.807 17.2948 2.65791 17.5747 2.77762 17.7769C2.89732 17.9791 3.16472 17.9856 3.69951 17.9985C4.75712 18.024 5.47028 17.7269 6.03638 17.3134C6.35744 17.0788 6.51798 16.9615 6.62862 16.9481C6.73926 16.9346 6.957 17.0234 7.39241 17.2011C7.78374 17.3608 8.23812 17.4593 8.65499 17.4868C9.86553 17.5665 11.132 17.5666 12.345 17.4868Z" stroke="currentColor" stroke-width="1.5" stroke-linejoin="round"/>
  </symbol>

  <symbol id="messageFill" viewBox="0 0 24 24">
    <path fill="currentColor" d="M21.4859 10.5015C21.8494 10.4788 22.1767 10.7207 22.2617 11.0749C22.3659 11.5084 22.4344 11.9557 22.4643 12.4134C22.512 13.145 22.512 13.9016 22.4643 14.6333C22.3682 16.1066 21.7212 17.4294 21.0096 18.4949C20.8323 18.8418 20.9143 19.3954 21.3068 20.1324L21.3272 20.1705C21.4584 20.4167 21.5926 20.6686 21.6709 20.8857C21.7545 21.1176 21.8516 21.5142 21.6178 21.909C21.4051 22.2683 21.0669 22.3957 20.8084 22.4453C20.5968 22.4858 20.3401 22.4919 20.1105 22.4973L20.0686 22.4983C18.8373 22.528 17.9638 22.1749 17.2713 21.669C17.165 21.5914 17.0866 21.5343 17.0256 21.4913C16.9331 21.5265 16.811 21.5762 16.641 21.6455C16.1692 21.838 15.635 21.9528 15.1444 21.9851C13.901 22.067 12.6017 22.0672 11.3558 21.9851C9.85327 21.8862 8.46648 21.3651 7.31325 20.5388C7.02544 20.3326 6.92104 19.9532 7.06284 19.6287C7.20464 19.3043 7.55401 19.1233 7.90084 19.1944C9.79994 19.5842 12.8355 19.6543 15.4813 18.5777C18.0693 17.5247 20.3172 15.3699 20.7871 11.1667C20.8276 10.8047 21.1223 10.5241 21.4859 10.5015Z"/>
    <path fill="currentColor" fill-rule="evenodd" clip-rule="evenodd" d="M12.1443 1.06147C10.8984 0.979424 9.59906 0.979597 8.35571 1.06147C4.42185 1.32054 1.29316 4.46804 1.03579 8.41335C0.98807 9.14497 0.98807 9.90163 1.03579 10.6333C1.13191 12.1066 1.77884 13.4294 2.49047 14.4949C2.66772 14.8418 2.58576 15.3954 2.19322 16.1324L2.17291 16.1705C2.04166 16.4167 1.90744 16.6685 1.82916 16.8857C1.74552 17.1176 1.64847 17.5142 1.88225 17.909C1.96127 18.0425 2.07112 18.1704 2.22404 18.2719C2.37081 18.3692 2.52248 18.4189 2.65415 18.447C2.88549 18.4964 3.16753 18.4984 3.44071 18.4985C4.6671 18.5262 5.53802 18.1736 6.22877 17.669C6.33506 17.5913 6.41347 17.5342 6.47449 17.4913C6.56698 17.5265 6.68915 17.5762 6.85908 17.6455C7.33095 17.838 7.86507 17.9528 8.35571 17.9851C9.59905 18.067 10.8984 18.0672 12.1443 17.9851C16.0781 17.7261 19.2069 14.5785 19.4642 10.6332C19.5119 9.90161 19.5119 9.14493 19.4642 8.41334C19.2068 4.46803 16.0781 1.32054 12.1443 1.06147ZM6.75 7C6.33579 7 6 7.33579 6 7.75C6 8.16421 6.33579 8.5 6.75 8.5H10.75C11.1642 8.5 11.5 8.16421 11.5 7.75C11.5 7.33579 11.1642 7 10.75 7H6.75ZM6.75 12.5H13.75C14.1642 12.5 14.5 12.1642 14.5 11.75C14.5 11.3358 14.1642 11 13.75 11H6.75C6.33579 11 6 11.3358 6 11.75C6 12.1642 6.33579 12.5 6.75 12.5Z"/>
  </symbol>

  <symbol id="user" viewBox="0 0 24 24">
    <path fill="none" d="M19.5056 18.9361C21.5518 17.0704 16.585 14.5564 16.585 14.5564C15.5661 14.0611 14.0378 13.5004 12 13.5C9.96224 13.5004 8.43392 14.0617 7.41504 14.5571C7.41504 14.5571 2.44821 17.071 4.49439 18.9368C5.49393 19.8482 6.60717 20.5 8.00677 20.5L15.9932 20.4994C17.3928 20.4994 18.5061 19.8475 19.5056 18.9361Z" stroke="currentColor" stroke-width="1.5" stroke-linecap="round" stroke-linejoin="round"/>
    <path fill="none" d="M15.5 7C15.5 8.933 13.933 10.5 12 10.5C10.067 10.5 8.5 8.933 8.5 7C8.5 5.067 10.067 3.5 12 3.5C13.933 3.5 15.5 5.067 15.5 7Z" stroke="currentColor" stroke-width="1.5" stroke-linecap="round" stroke-linejoin="round"/>
  </symbol>

  <symbol id="userFill" viewBox="0 0 24 24">
    <path fill="currentColor" d="M3.57016 16.958C5.28835 14.1275 8.60769 12.75 12 12.75C15.3924 12.75 18.7112 14.1274 20.4296 16.958C21.065 18.0047 20.6878 19.215 19.9295 19.9417L19.3931 20.4556C18.8587 20.9677 18.1404 21.25 17.3978 21.25H6.60195C5.85937 21.25 5.14107 20.9677 4.60665 20.4556L4.07034 19.9417C3.31194 19.215 2.9348 18.0047 3.57016 16.958Z"/>
    <path fill="currentColor" d="M7.75 7C7.75 4.65279 9.65279 2.75 12 2.75C14.3472 2.75 16.25 4.65279 16.25 7C16.25 9.34721 14.3472 11.25 12 11.25C9.65279 11.25 7.75 9.34721 7.75 7Z"/>
  </symbol>

  <symbol id="cart" viewBox="0 0 26 26">
    <path fill="none" d="M8.66602 17.3333L18.1128 16.5461C21.0687 16.2998 21.7322 15.6542 22.0598 12.7063L22.7493 6.5" stroke="currentColor" stroke-width="1.5" stroke-linecap="round"/>
    <path fill="none" d="M6.5 6.5H23.8333" stroke="currentColor" stroke-width="1.5" stroke-linecap="round"/>
    <path fill="none" d="M6.50065 23.8333C7.69727 23.8333 8.66732 22.8633 8.66732 21.6667C8.66732 20.47 7.69727 19.5 6.50065 19.5C5.30403 19.5 4.33398 20.47 4.33398 21.6667C4.33398 22.8633 5.30403 23.8333 6.50065 23.8333Z" stroke="currentColor" stroke-width="1.5"/>
    <path fill="none" d="M18.4167 23.8333C19.6133 23.8333 20.5833 22.8633 20.5833 21.6667C20.5833 20.47 19.6133 19.5 18.4167 19.5C17.22 19.5 16.25 20.47 16.25 21.6667C16.25 22.8633 17.22 23.8333 18.4167 23.8333Z" stroke="currentColor" stroke-width="1.5"/>
    <path fill="none" d="M8.66602 21.667H16.2493" stroke="currentColor" stroke-width="1.5" stroke-linecap="round"/>
    <path fill="none" d="M2.16602 2.16699H3.21252C4.23592 2.16699 5.128 2.84363 5.37621 3.80817L8.59941 16.3332C8.76229 16.9662 8.6229 17.6367 8.21994 18.1587L7.18416 19.5003" stroke="currentColor" stroke-width="1.5" stroke-linecap="round"/>
  </symbol>

  <symbol id="filter" viewBox="0 0 24 24">
    <path fill="none" d="M3 5H10M10 5C10 6.10457 10.8954 7 12 7C13.1046 7 14 6.10457 14 5M10 5C10 3.89543 10.8954 3 12 3C13.1046 3 14 3.89543 14 5M3 12H12M19 12H21M19 12C19 13.1046 18.1046 14 17 14C15.8954 14 15 13.1046 15 12C15 10.8954 15.8954 10 17 10C18.1046 10 19 10.8954 19 12ZM14 5H21M12 19H21M3 19H5M5 19C5 20.1046 5.89543 21 7 21C8.10457 21 9 20.1046 9 19C9 17.8954 8.10457 17 7 17C5.89543 17 5 17.8954 5 19Z" stroke="currentColor" stroke-width="1.5" stroke-linecap="round"/>
  </symbol>

  <symbol id="trash" viewBox="0 0 14 14">
    <path fill="none" d="M2.91667 4.6665V10.4998C2.91667 11.7885 3.96134 12.8332 5.25 12.8332H8.75C10.0387 12.8332 11.0833 11.7885 11.0833 10.4998V4.6665M8.16667 6.4165V9.9165M5.83333 6.4165L5.83333 9.9165M9.33333 2.9165L8.51301 1.68602C8.29663 1.36146 7.93236 1.1665 7.54229 1.1665H6.45771C6.06764 1.1665 5.70337 1.36146 5.48699 1.68602L4.66667 2.9165M9.33333 2.9165H4.66667M9.33333 2.9165H12.25M4.66667 2.9165H1.75" stroke="currentColor" stroke-width="1.25" stroke-linecap="round" stroke-linejoin="round"/>
  </symbol>

  <symbol id="plus" viewBox="0 0 14 14">
    <path fill="none" d="M7 3.5V10.5M10.5 7L3.5 7" stroke="currentColor" stroke-width="1.25" stroke-linecap="round" stroke-linejoin="round"/>
  </symbol>

  <symbol id="cart2" viewBox="0 0 18 18">
    <path fill="none" d="M6 12L12.5401 11.455C14.5865 11.2845 15.0458 10.8375 15.2726 8.79667L15.75 4.5" stroke="currentColor" stroke-width="1.25" stroke-linecap="round"/>
    <path fill="none" d="M4.5 4.5H4.875M16.5 4.5H14.625" stroke="currentColor" stroke-width="1.5" stroke-linecap="round"/>
    <path fill="none" d="M7.125 4.5H12.375M9.75 7.125V1.875" stroke="currentColor" stroke-width="1.25" stroke-linecap="round"/>
    <path fill="none" d="M4.5 16.5C5.32843 16.5 6 15.8284 6 15C6 14.1716 5.32843 13.5 4.5 13.5C3.67157 13.5 3 14.1716 3 15C3 15.8284 3.67157 16.5 4.5 16.5Z" stroke="currentColor" stroke-width="1.25"/>
    <path fill="none" d="M12.75 16.5C13.5784 16.5 14.25 15.8284 14.25 15C14.25 14.1716 13.5784 13.5 12.75 13.5C11.9216 13.5 11.25 14.1716 11.25 15C11.25 15.8284 11.9216 16.5 12.75 16.5Z" stroke="currentColor" stroke-width="1.25"/>
    <path fill="none" d="M6 15H11.25" stroke="currentColor" stroke-width="1.25" stroke-linecap="round"/>
    <path fill="none" d="M1.5 1.5H2.2245C2.93301 1.5 3.55061 1.96844 3.72245 2.6362L5.95389 11.3074C6.06665 11.7456 5.97015 12.2098 5.69118 12.5712L4.9741 13.5" stroke="currentColor" stroke-width="1.25" stroke-linecap="round"/>
  </symbol>

  <symbol id="share" viewBox="0 0 20 20">
    <path fill="none" d="M17.5 5.4165C17.5 6.79721 16.3807 7.9165 15 7.9165C13.6192 7.9165 12.5 6.79721 12.5 5.4165C12.5 4.0358 13.6192 2.9165 15 2.9165C16.3807 2.9165 17.5 4.0358 17.5 5.4165Z" stroke="currentColor" stroke-width="1.04167"/>
    <path fill="none" d="M7.5 10C7.5 11.3807 6.38071 12.5 5 12.5C3.61929 12.5 2.5 11.3807 2.5 10C2.5 8.61925 3.61929 7.5 5 7.5C6.38071 7.5 7.5 8.61925 7.5 10Z" stroke="currentColor" stroke-width="1.04167"/>
    <path fill="none" d="M17.5 14.5835C17.5 15.9642 16.3807 17.0835 15 17.0835C13.6192 17.0835 12.5 15.9642 12.5 14.5835C12.5 13.2027 13.6192 12.0835 15 12.0835C16.3807 12.0835 17.5 13.2027 17.5 14.5835Z" stroke="currentColor" stroke-width="1.04167"/>
    <path fill="none" d="M7.27441 8.95759L12.6911 6.45801M7.27441 11.0413L12.6911 13.5409" stroke="currentColor" stroke-width="1.04167"/>
  </symbol>

  <symbol id="more" viewBox="0 0 24 24">
    <path fill="none" d="M21 12C21 11.1716 20.3284 10.5 19.5 10.5C18.6716 10.5 18 11.1716 18 12C18 12.8284 18.6716 13.5 19.5 13.5C20.3284 13.5 21 12.8284 21 12Z" stroke="currentColor"/>
    <path fill="none" d="M13.5 12C13.5 11.1716 12.8284 10.5 12 10.5C11.1716 10.5 10.5 11.1716 10.5 12C10.5 12.8284 11.1716 13.5 12 13.5C12.8284 13.5 13.5 12.8284 13.5 12Z" stroke="currentColor"/>
    <path fill="none" d="M6 12C6 11.1716 5.32843 10.5 4.5 10.5C3.67157 10.5 3 11.1716 3 12C3 12.8284 3.67157 13.5 4.5 13.5C5.32843 13.5 6 12.8284 6 12Z" stroke="currentColor"/>
  </symbol>

  <symbol id="more-vertical" viewBox="0 0 24 24">
    <path d="M11.25 15C11.9404 15 12.5 15.5596 12.5 16.25C12.5 16.9404 11.9404 17.5 11.25 17.5C10.5596 17.5 10 16.9404 10 16.25C10 15.5596 10.5596 15 11.25 15ZM11.25 10C11.9404 10 12.5 10.5596 12.5 11.25C12.5 11.9404 11.9404 12.5 11.25 12.5C10.5596 12.5 10 11.9404 10 11.25C10 10.5596 10.5596 10 11.25 10ZM11.25 5C11.9404 5 12.5 5.55964 12.5 6.25C12.5 6.94036 11.9404 7.5 11.25 7.5C10.5596 7.5 10 6.94036 10 6.25C10 5.55964 10.5596 5 11.25 5Z" fill="currentColor"/>
  </symbol>

  <symbol id="unlock" viewBox="0 0 20 20">
    <path fill="none" d="M3.55618 15.7039C3.74358 17.0958 4.89645 18.1862 6.29939 18.2507C7.4799 18.305 8.67909 18.3333 9.99967 18.3333C11.3203 18.3333 12.5194 18.305 13.6999 18.2507C15.1029 18.1862 16.2558 17.0958 16.4432 15.7039C16.5655 14.7956 16.6663 13.8647 16.6663 12.9167C16.6663 11.9687 16.5655 11.0378 16.4432 10.1294C16.2558 8.7375 15.1029 7.64707 13.6999 7.58257C12.5194 7.52831 11.3203 7.5 9.99967 7.5C8.67909 7.5 7.4799 7.52831 6.29938 7.58257C4.89645 7.64707 3.74358 8.7375 3.55618 10.1294C3.43387 11.0378 3.33301 11.9687 3.33301 12.9167C3.33301 13.8647 3.43387 14.7956 3.55618 15.7039Z" stroke="currentColor" stroke-width="1.5"/>
    <path fill="none" d="M6.25 7.50033V5.41699C6.25 3.34593 7.92893 1.66699 10 1.66699C11.6328 1.66699 12.9167 2.91699 13.3333 4.16699" stroke="currentColor" stroke-width="1.5" stroke-linecap="round" stroke-linejoin="round"/>
    <path fill="none" d="M9.99707 12.917H10.0046" stroke="currentColor" stroke-width="2" stroke-linecap="round" stroke-linejoin="round"/>
  </symbol>

  <symbol id="bag" viewBox="0 0 24 24">
    <path fill="none" d="M17.5 8.75L15.0447 19.5532C15.015 19.684 15 19.8177 15 19.9518C15 20.9449 15.8051 21.75 16.7982 21.75H18" stroke="currentColor" stroke-width="1.5" stroke-linecap="round" stroke-linejoin="round"/>
    <path fill="none" d="M19.2192 21.75H4.78078C3.79728 21.75 3 20.9527 3 19.9692C3 19.8236 3.01786 19.6786 3.05317 19.5373L5.24254 10.7799C5.60631 9.32474 5.78821 8.59718 6.33073 8.17359C6.87325 7.75 7.6232 7.75 9.12311 7.75H14.8769C16.3768 7.75 17.1267 7.75 17.6693 8.17359C18.2118 8.59718 18.3937 9.32474 18.7575 10.7799L20.9468 19.5373C20.9821 19.6786 21 19.8236 21 19.9692C21 20.9527 20.2027 21.75 19.2192 21.75Z" stroke="currentColor" stroke-width="1.5" stroke-linecap="round" stroke-linejoin="round"/>
    <path fill="none" d="M15 7.75V5.75C15 4.09315 13.6569 2.75 12 2.75C10.3431 2.75 9 4.09315 9 5.75V7.75" stroke="currentColor" stroke-width="1.5" stroke-linecap="round" stroke-linejoin="round"/>
    <path fill="none" d="M10 10.75H12.5" stroke="currentColor" stroke-width="1.5" stroke-linecap="round" stroke-linejoin="round"/>
  </symbol>

</svg>