<svg width="18" height="18" viewBox="0 0 18 18" fill="none" xmlns="http://www.w3.org/2000/svg">
<path d="M1.67174 8.31557L4.77603 11.1266L3.84612 15.3117C3.79692 15.5305 3.81096 15.7595 3.88649 15.97C3.96203 16.1806 4.0957 16.3634 4.27081 16.4955C4.44592 16.6277 4.65468 16.7033 4.871 16.713C5.08733 16.7228 5.30161 16.6661 5.48706 16.5501L9.00503 14.3362L12.5154 16.5501C12.7009 16.6661 12.9152 16.7228 13.1315 16.713C13.3478 16.7033 13.5566 16.6277 13.7317 16.4955C13.9068 16.3634 14.0405 16.1806 14.116 15.97C14.1915 15.7595 14.2056 15.5305 14.1564 15.3117L13.2278 11.1309L16.3328 8.31557C16.497 8.1686 16.6158 7.9746 16.6742 7.75789C16.7326 7.54118 16.728 7.31141 16.661 7.09739C16.5941 6.88336 16.4677 6.69462 16.2977 6.55483C16.1278 6.41503 15.9219 6.3304 15.7058 6.31156L11.613 5.94376L10.0155 1.99002C9.93205 1.78256 9.79133 1.60536 9.61103 1.48071C9.43074 1.35606 9.21893 1.28955 9.00228 1.28955C8.78563 1.28955 8.57382 1.35606 8.39352 1.48071C8.21323 1.60536 8.07251 1.78256 7.98908 1.99002L6.38669 5.94376L2.29535 6.31156C2.07925 6.3304 1.87331 6.41503 1.70337 6.55483C1.53344 6.69462 1.40706 6.88336 1.34009 7.09739C1.27312 7.31141 1.26855 7.54118 1.32693 7.75789C1.38532 7.9746 1.50407 8.1686 1.6683 8.31557H1.67174Z" fill="#FACC15"/>
</svg>
