<svg width="24" height="24" viewBox="0 0 24 24" fill="none" xmlns="http://www.w3.org/2000/svg">
<path d="M3.57016 16.958C5.28835 14.1275 8.60769 12.75 12 12.75C15.3924 12.75 18.7112 14.1274 20.4296 16.958C21.065 18.0047 20.6878 19.215 19.9295 19.9417L19.3931 20.4556C18.8587 20.9677 18.1404 21.25 17.3978 21.25H6.60195C5.85937 21.25 5.14107 20.9677 4.60665 20.4556L4.07034 19.9417C3.31194 19.215 2.9348 18.0047 3.57016 16.958Z" fill="#032D81"/>
<path d="M7.75 7C7.75 4.65279 9.65279 2.75 12 2.75C14.3472 2.75 16.25 4.65279 16.25 7C16.25 9.34721 14.3472 11.25 12 11.25C9.65279 11.25 7.75 9.34721 7.75 7Z" fill="#032D81"/>
</svg>
