<svg width="18" height="18" viewBox="0 0 18 18" fill="none" xmlns="http://www.w3.org/2000/svg">
<g clip-path="url(#clip0_743_55933)">
<path fill-rule="evenodd" clip-rule="evenodd" d="M11.1488 10.0522C10.8082 10.1914 10.5906 10.7248 10.3698 10.9972C10.2566 11.1368 10.1216 11.1586 9.94756 11.0886C8.66892 10.5792 7.68877 9.72598 6.98318 8.5493C6.86365 8.36684 6.88509 8.2227 7.02923 8.05324C7.24228 7.80223 7.51017 7.51711 7.56783 7.17891C7.6958 6.43078 6.71775 4.11012 5.42611 5.16164C1.70939 8.19035 11.6263 16.2232 13.4161 11.8786C13.9223 10.6471 11.7135 9.8209 11.1488 10.0522ZM9.00009 16.4278C7.6856 16.4278 6.3922 16.0784 5.25982 15.4167C5.07806 15.3102 4.85834 15.2821 4.65513 15.3373L2.19455 16.0126L3.05166 14.1244C3.16838 13.8674 3.13849 13.5682 2.97361 13.3397C2.05673 12.0688 1.57193 10.5683 1.57193 9C1.57193 4.90395 4.90404 1.57184 9.00009 1.57184C13.0961 1.57184 16.4279 4.90395 16.4279 9C16.4279 13.0957 13.0958 16.4278 9.00009 16.4278ZM9.00009 0C4.03744 0 9.40896e-05 4.03734 9.40896e-05 9C9.40896e-05 10.7459 0.495797 12.4225 1.43763 13.8776L0.0704066 16.8887C-0.0558043 17.1668 -0.00974965 17.4923 0.187828 17.724C0.339703 17.9016 0.55943 18 0.786188 18C1.29314 18 4.05748 17.1313 4.76095 16.9383C6.06138 17.634 7.52002 18 9.00009 18C13.9624 18 18.0001 13.9623 18.0001 9C18.0001 4.03734 13.9624 0 9.00009 0Z" fill="white"/>
</g>
<defs>
<clipPath id="clip0_743_55933">
<rect width="18" height="18" fill="white"/>
</clipPath>
</defs>
</svg>
